<svg width="29" height="44" viewBox="0 0 29 44" fill="none" xmlns="http://www.w3.org/2000/svg">
<g id="Group 1437256054">
<path id="Vector" d="M0.672073 29.3861H4.91805C5.26846 29.3861 6.1686 29.5475 6.42315 29.2708C6.68525 28.9858 6.76059 28.3797 6.88589 28.0188L7.94443 24.9242C8.07563 24.5653 8.19876 23.7704 8.53635 23.5589C8.75851 23.4197 9.12971 23.4849 9.37993 23.4849H11.395C13.9761 23.4849 16.6691 23.2612 19.2389 23.4892C19.8208 23.5408 19.8913 24.4691 20.0327 24.9242L21.0244 28.0188C21.138 28.3741 21.2076 28.9974 21.4705 29.2708C21.7442 29.555 22.6832 29.3861 23.0534 29.3861H27.5873C27.0305 26.9794 26.0094 24.6 25.2126 22.2615C23.5665 17.4304 21.9193 12.5862 20.3659 7.72441C19.6264 5.40978 18.9201 1.44806 16.2886 0.581737C14.1065 -0.136625 11.4664 0.375772 10.2678 2.47091C9.27148 4.21248 8.77621 6.27517 8.10672 8.15621C6.94727 11.414 5.77171 14.6677 4.66502 17.9436L1.87074 25.8598C1.47665 26.9986 0.873937 28.1985 0.672073 29.3861Z" fill="#FF1B09"/>
<path id="Vector_2" d="M14.0577 6.78882C13.338 8.87326 12.6836 10.8042 11.7188 13.5151C11.335 14.5934 10.3654 17.3925 10.1716 18.5192H17.9439C17.332 15.8746 16.3009 13.2572 15.4623 10.675C15.0529 9.4137 14.7972 7.97388 14.2016 6.78882H14.0577Z" fill="white"/>
<path id="Vector_3" d="M0.0244141 37.4463V43.2755H28.235V37.4463H0.0244141Z" fill="#FF1B09"/>
</g>
</svg>
