<svg width="121" height="100" viewBox="0 0 121 100" fill="none" xmlns="http://www.w3.org/2000/svg">
<g id="devicon:google-wordmark">
<path id="Vector" d="M30.1082 33.743H16.1554V37.8835H26.0528C25.5613 43.6877 20.7307 46.1644 16.1743 46.1644C13.241 46.1644 10.4278 44.9991 8.3536 42.925C6.27942 40.8508 5.11415 38.0376 5.11415 35.1043C5.11415 32.1709 6.27942 29.3577 8.3536 27.2835C10.4278 25.2094 13.241 24.0441 16.1743 24.0441C18.9547 24.0398 21.6283 25.114 23.6328 27.0407L26.5349 24.0346C23.7312 21.3254 19.9687 19.8367 16.0703 19.8942C14.0729 19.9085 12.0979 20.316 10.258 21.0936C8.41805 21.8711 6.74931 23.0035 5.34701 24.426C3.94472 25.8485 2.83634 27.5332 2.08515 29.384C1.33396 31.2349 0.954679 33.2156 0.968955 35.213C0.983232 37.2104 1.39079 39.1854 2.16836 41.0253C2.94592 42.8652 4.07827 44.534 5.50075 45.9363C6.92324 47.3386 8.60799 48.4469 10.4588 49.1981C12.3097 49.9493 14.2903 50.3286 16.2877 50.3143C24.4269 50.3143 30.3918 44.737 30.3918 36.4844C30.4097 35.5639 30.3241 34.6444 30.1366 33.743H30.1082Z" fill="#4885ED"/>
<path id="Vector_2" d="M41.5371 30.7463C39.6071 30.7538 37.7225 31.3325 36.1209 32.4094C34.5193 33.4863 33.2723 35.0132 32.5372 36.7977C31.8021 38.5822 31.6117 40.5444 31.9901 42.437C32.3684 44.3295 33.2986 46.0677 34.6633 47.4324C36.028 48.7971 37.7662 49.7273 39.6587 50.1056C41.5513 50.484 43.5135 50.2936 45.298 49.5585C47.0825 48.8234 48.6094 47.5764 49.6864 45.9748C50.7633 44.3732 51.3419 42.4886 51.3494 40.5587C51.3698 39.2645 51.13 37.9793 50.6441 36.7796C50.1582 35.5799 49.4362 34.49 48.5209 33.5748C47.6057 32.6595 46.5158 31.9375 45.3161 31.4516C44.1164 30.9657 42.8313 30.7259 41.5371 30.7463ZM41.5938 34.5843C42.7834 34.5142 43.9666 34.8032 44.99 35.4138C46.0134 36.0243 46.8297 36.9283 47.3331 38.0085C47.8364 39.0886 48.0036 40.2951 47.8129 41.4715C47.6222 42.6478 47.0825 43.7397 46.2637 44.6055C45.4449 45.4714 44.3848 46.0712 43.2209 46.3272C42.0571 46.5832 40.8431 46.4836 39.7366 46.0413C38.63 45.599 37.6819 44.8344 37.0152 43.8466C36.3485 42.8589 35.9939 41.6936 35.9975 40.5019C35.9579 39.7414 36.073 38.9807 36.3361 38.266C36.5991 37.5513 37.0046 36.8975 37.5279 36.3442C38.0511 35.7909 38.6813 35.3496 39.3802 35.047C40.0792 34.7445 40.8322 34.5871 41.5938 34.5843Z" fill="#DB3236"/>
<path id="Vector_3" d="M62.92 30.7464C60.9896 30.752 59.1041 31.3291 57.5012 32.4049C55.8984 33.4807 54.65 35.007 53.9134 36.7913C53.1768 38.5757 52.9851 40.5382 53.3624 42.4313C53.7397 44.3245 54.6691 46.0636 56.0335 47.4292C57.3978 48.7949 59.136 49.726 61.0288 50.1051C62.9216 50.4842 64.8842 50.2944 66.6693 49.5595C68.4544 48.8247 69.9819 47.5777 71.0592 45.9759C72.1365 44.3741 72.7154 42.4891 72.7229 40.5588C72.7433 39.2654 72.5037 37.981 72.0184 36.7819C71.5331 35.5829 70.812 34.4935 69.8977 33.5783C68.9835 32.6632 67.8947 31.941 66.6961 31.4545C65.4975 30.9681 64.2134 30.7273 62.92 30.7464ZM62.9767 34.5844C64.1663 34.5143 65.3496 34.8033 66.373 35.4138C67.3963 36.0244 68.2127 36.9284 68.716 38.0086C69.2194 39.0887 69.3865 40.2952 69.1958 41.4716C69.0052 42.6479 68.4654 43.7398 67.6466 44.6056C66.8278 45.4714 65.7677 46.0713 64.6038 46.3273C63.44 46.5833 62.226 46.4837 61.1195 46.0414C60.0129 45.5991 59.0648 44.8345 58.3981 43.8467C57.7314 42.859 57.3768 41.6937 57.3805 40.502C57.3408 39.7415 57.456 38.9808 57.719 38.2661C57.9821 37.5514 58.3875 36.8976 58.9108 36.3443C59.4341 35.791 60.0643 35.3497 60.7632 35.0471C61.4621 34.7446 62.2151 34.5872 62.9767 34.5844Z" fill="#F4C20D"/>
<path id="Vector_4" d="M83.8776 30.7559C78.6217 30.7559 74.4906 35.3596 74.4906 40.521C74.4519 43.0432 75.4031 45.4802 77.1403 47.3092C78.8774 49.1383 81.2622 50.2137 83.7831 50.3049C84.8003 50.3604 85.8162 50.1743 86.7478 49.7619C87.6794 49.3495 88.5001 48.7225 89.143 47.9322V49.8228C89.143 53.1976 87.0917 55.2111 84.0005 55.2111C82.9224 55.2022 81.8716 54.8718 80.9824 54.2621C80.0932 53.6525 79.4062 52.7914 79.0092 51.7891L75.228 53.3583C75.9593 55.0801 77.1851 56.5461 78.75 57.5709C80.315 58.5957 82.1488 59.1332 84.0194 59.1152C89.247 59.1152 93.2267 55.8256 93.2267 48.9248V31.342H89.1524V32.9963C88.4843 32.2677 87.6677 31.6908 86.7579 31.3043C85.848 30.9179 84.8658 30.7309 83.8776 30.7559ZM84.2557 34.5844C86.8364 34.5844 89.4738 36.787 89.4738 40.5399C89.4738 44.2927 86.8364 46.467 84.199 46.467C83.4532 46.448 82.7188 46.2791 82.0396 45.9703C81.3605 45.6615 80.7504 45.2191 80.2459 44.6696C79.7413 44.12 79.3525 43.4745 79.1027 42.7715C78.8529 42.0685 78.7472 41.3224 78.7918 40.5777C78.7918 36.7964 81.4954 34.5844 84.2557 34.5844Z" fill="#4885ED"/>
<path id="Vector_5" d="M111.481 30.7275C106.527 30.7275 102.358 34.6695 102.358 40.4926C102.309 41.7759 102.523 43.0558 102.985 44.254C103.447 45.4523 104.148 46.5438 105.046 47.4621C105.944 48.3803 107.019 49.1059 108.207 49.5947C109.395 50.0835 110.669 50.3252 111.953 50.305C113.564 50.3081 115.151 49.919 116.577 49.1713C118.004 48.4235 119.226 47.3396 120.14 46.0132L116.756 43.7634C116.265 44.5953 115.564 45.2828 114.722 45.7559C113.88 46.2291 112.928 46.4711 111.963 46.4575C110.96 46.499 109.967 46.2393 109.113 45.712C108.259 45.1847 107.582 44.4139 107.17 43.4987L120.282 38.0632L119.601 36.4656C118.976 34.806 117.867 33.3725 116.417 32.351C114.967 31.3295 113.244 30.7672 111.471 30.737L111.481 30.7275ZM111.651 34.5088C112.391 34.4769 113.124 34.6565 113.765 35.0265C114.406 35.3965 114.929 35.9416 115.271 36.5979L106.518 40.2563C106.474 39.5412 106.573 38.8246 106.808 38.1478C107.043 37.471 107.41 36.8474 107.887 36.3131C108.364 35.7788 108.942 35.3442 109.588 35.0345C110.234 34.7248 110.935 34.5462 111.651 34.5088Z" fill="#DB3236"/>
<path id="Vector_6" d="M96.1099 49.7283H100.421V20.9058H96.1099V49.7283Z" fill="#3CBA54"/>
</g>
</svg>
