<svg width="25" height="24" viewBox="0 0 25 24" fill="none" xmlns="http://www.w3.org/2000/svg">
<path d="M12.5 16C13.605 16 14.6649 15.5786 15.4463 14.8284C16.2277 14.0783 16.6666 13.0609 16.6666 12C16.6666 10.9391 16.2277 9.92172 15.4463 9.17157C14.6649 8.42143 13.605 8 12.5 8C11.3949 8 10.3351 8.42143 9.5537 9.17157C8.7723 9.92172 8.33331 10.9391 8.33331 12C8.33331 13.0609 8.7723 14.0783 9.5537 14.8284C10.3351 15.5786 11.3949 16 12.5 16Z" stroke="white" stroke-linecap="round" stroke-linejoin="round"/>
<path d="M3.125 16V8C3.125 6.67392 3.67373 5.40215 4.65049 4.46447C5.62724 3.52678 6.952 3 8.33333 3H16.6667C18.048 3 19.3728 3.52678 20.3495 4.46447C21.3263 5.40215 21.875 6.67392 21.875 8V16C21.875 17.3261 21.3263 18.5979 20.3495 19.5355C19.3728 20.4732 18.048 21 16.6667 21H8.33333C6.952 21 5.62724 20.4732 4.65049 19.5355C3.67373 18.5979 3.125 17.3261 3.125 16Z" stroke="white"/>
<path d="M18.2292 6.50862L18.2383 6.49899" stroke="white" stroke-linecap="round" stroke-linejoin="round"/>
</svg>
