<svg width="38" height="38" viewBox="0 0 38 38" fill="none" xmlns="http://www.w3.org/2000/svg">
<path d="M27.8667 9.5C22.8 19.6333 17.7333 11.4 12.6667 22.8L21.5333 29.7667C27.2333 19.6333 31.6667 26.6 36.7333 16.4667L27.8667 9.5ZM19.6333 23.4333C18.9341 23.4333 18.3667 22.8659 18.3667 22.1667C18.3667 21.4675 18.9341 20.9 19.6333 20.9C20.3325 20.9 20.9 21.4675 20.9 22.1667C20.9 22.8659 20.3325 23.4333 19.6333 23.4333ZM24.7 20.9C23.6512 20.9 22.8 20.0494 22.8 19C22.8 17.9506 23.6512 17.1 24.7 17.1C25.7488 17.1 26.6 17.9506 26.6 19C26.6 20.0494 25.7488 20.9 24.7 20.9ZM29.7667 17.1C29.0675 17.1 28.5 16.5325 28.5 15.8333C28.5 15.1341 29.0675 14.5667 29.7667 14.5667C30.4659 14.5667 31.0333 15.1341 31.0333 15.8333C31.0333 16.5325 30.4659 17.1 29.7667 17.1Z" fill="white"/>
<path d="M10.1333 33.5667C7.6893 33.5667 5.7 31.5774 5.7 29.1333C5.7 28.4341 6.26747 27.8667 6.96667 27.8667C7.66587 27.8667 8.23333 28.4341 8.23333 29.1333C8.23333 30.1809 9.0858 31.0333 10.1333 31.0333C10.8325 31.0333 11.4 31.6008 11.4 32.3C11.4 32.9992 10.8325 33.5667 10.1333 33.5667ZM26.7919 26.3606C25.6386 27.1713 24.4562 28.4462 23.1895 30.6983L22.1027 32.6306L10.3297 23.3801C12.7674 17.8986 14.4356 15.162 20.0627 13.7674C20.1774 13.7389 20.2793 13.7091 20.3883 13.6794C19.829 12.832 19.2977 12.0599 18.8258 11.3994H15.5167C14.9923 11.3994 14.5667 10.9738 14.5667 10.4494C14.5667 9.92497 14.9923 9.49937 15.5167 9.49937H19L21.3712 4.7576C21.4776 4.5448 21.5333 4.3092 21.5333 4.07043C21.5333 3.22177 20.8455 2.53333 19.9956 2.53333H10.4044C9.55447 2.53333 8.86667 3.22177 8.86667 4.07043C8.86667 4.3092 8.9224 4.5448 9.0288 4.75823L12.0333 10.7667C9.16623 14.6591 3.16667 24.0084 3.16667 29.1333C3.16667 32.9808 6.28583 36.1 10.1333 36.1H20.2667C24.1142 36.1 27.2333 32.9808 27.2333 29.1333C27.2333 28.3075 27.0642 27.3651 26.7919 26.3606Z" fill="white"/>
</svg>
