<svg width="39" height="38" viewBox="0 0 39 38" fill="none" xmlns="http://www.w3.org/2000/svg">
<g id="Finance analytics">
<path id="Vector" d="M32.6101 15.934C32.8616 15.6541 33.0186 15.2893 33.0186 14.8833C33.0186 14.0087 32.3099 13.3 31.4353 13.3L31.429 13.3006C31.6297 13.0353 31.752 12.7078 31.752 12.35C31.752 11.4754 31.0433 10.7667 30.1686 10.7667C29.795 10.7667 29.4511 10.8965 29.18 11.1131L26.0133 13.6464C25.6511 13.9365 25.4186 14.383 25.4186 14.8833C25.4186 15.758 26.1273 16.4667 27.002 16.4667C27.1255 16.4667 27.2445 16.4477 27.3604 16.4211C27.3332 16.537 27.3186 16.6586 27.3186 16.7833C27.3186 17.5623 27.8836 18.2071 28.6252 18.3388C28.5999 18.4496 28.5853 18.5649 28.5853 18.6833C28.5853 19.558 29.294 20.2667 30.1686 20.2667C30.5423 20.2667 30.8862 20.1368 31.1573 19.9202L33.0573 18.6536C33.4195 18.3635 33.652 17.917 33.652 17.4167C33.652 16.7333 33.2169 16.1563 32.6101 15.934Z" fill="white"/>
<path id="Vector_2" d="M31.1187 3.16667L32.3866 2.21603C32.6513 2.0178 32.9794 1.9 33.3353 1.9C34.21 1.9 34.9187 2.6087 34.9187 3.48333C34.9187 4.0014 34.6691 4.46183 34.2841 4.75063L31.1187 7.1592V3.16667Z" fill="white"/>
<path id="Vector_3" d="M21.6186 12.0333C20.9194 12.0333 20.3519 11.4659 20.3519 10.7667C20.3519 10.0675 20.9194 9.5 21.6186 9.5C22.3178 9.5 22.8853 10.0675 22.8853 10.7667C22.8853 11.1169 23.1684 11.4 23.5186 11.4C23.8688 11.4 24.1519 11.1169 24.1519 10.7667C24.1519 9.58803 23.3432 8.60573 22.2519 8.32327V7.6C22.2519 7.24977 21.9688 6.96667 21.6186 6.96667C21.2684 6.96667 20.9853 7.24977 20.9853 7.6V8.32327C19.894 8.60573 19.0853 9.58803 19.0853 10.7667C19.0853 12.1657 20.2196 13.3 21.6186 13.3C22.3178 13.3 22.8853 13.8675 22.8853 14.5667C22.8853 15.2659 22.3178 15.8333 21.6186 15.8333C20.9194 15.8333 20.3519 15.2659 20.3519 14.5667C20.3519 14.2164 20.0688 13.9333 19.7186 13.9333C19.3684 13.9333 19.0853 14.2164 19.0853 14.5667C19.0853 15.7453 19.894 16.7276 20.9853 17.0101V17.7333C20.9853 18.0836 21.2684 18.3667 21.6186 18.3667C21.9688 18.3667 22.2519 18.0836 22.2519 17.7333V17.0101C23.3432 16.7276 24.1519 15.7453 24.1519 14.5667C24.1519 13.1676 23.0176 12.0333 21.6186 12.0333Z" fill="white"/>
<path id="Vector_4" d="M27.078 20.2667H15.9186V15.9834L13.3853 19.2293V25.3333C13.3853 26.0325 13.9528 26.6 14.652 26.6H28.5853C29.2845 26.6 29.852 26.0325 29.852 25.3333V22.1394C28.6398 22.0286 27.6106 21.3009 27.078 20.2667ZM21.6186 24.7C20.9194 24.7 20.352 24.1325 20.352 23.4333C20.352 22.7341 20.9194 22.1667 21.6186 22.1667C22.3178 22.1667 22.8853 22.7341 22.8853 23.4333C22.8853 24.1325 22.3178 24.7 21.6186 24.7Z" fill="white"/>
<path id="Vector_5" d="M28.5853 3.16666H14.652C13.9528 3.16666 13.3853 3.73413 13.3853 4.43333V8.9946C13.9635 8.83056 14.5861 8.81916 15.203 8.97433C15.4544 9.03766 15.6919 9.13266 15.9186 9.24793V5.7H27.3186V10.1694L27.9931 9.6292C28.5239 9.20423 29.1749 8.95596 29.852 8.8939V4.43333C29.852 3.73413 29.2845 3.16666 28.5853 3.16666Z" fill="white"/>
<path id="Vector_6" d="M14.652 28.5C12.9059 28.5 11.4853 27.0794 11.4853 25.3333V18.5757L15.5836 13.3247C15.8794 12.9466 16.0067 12.4317 15.8547 11.8902C15.7078 11.3677 15.2701 10.9491 14.7432 10.8173C14.1365 10.666 13.5665 10.8648 13.1928 11.2537L8.48459 16.1291C7.15965 17.5022 6.41865 19.3357 6.41865 21.2439V25.9217C6.41865 26.7615 6.08552 27.5671 5.49082 28.1612L4.09305 29.5589C3.95435 29.6976 3.88659 29.8781 3.88532 30.0586C3.88469 30.2512 3.96195 30.4431 4.11522 30.5843L10.586 36.5174C10.7437 36.6624 10.9426 36.7327 11.1414 36.7333C11.353 36.7333 11.5645 36.6542 11.726 36.4927L12.5405 35.6782C13.0554 35.1633 13.7356 34.8555 14.4588 34.7713C18.9777 34.2475 21.7111 30.507 22.8695 28.5H14.652Z" fill="white"/>
</g>
</svg>
