<svg width="39" height="38" viewBox="0 0 39 38" fill="none" xmlns="http://www.w3.org/2000/svg">
<g id="Business agreement">
<path id="Vector" d="M14.3353 30.4C13.4606 30.4 12.7519 31.1087 12.7519 31.9833C12.7519 34.1873 17.1606 36.1 18.4519 36.1C19.1511 36.1 19.7186 35.5325 19.7186 34.8333C19.7186 33.5819 17.1973 30.4 14.3353 30.4Z" fill="white"/>
<path id="Vector_2" d="M31.4555 22.8C29.4016 22.8 28.6606 20.9 24.4876 20.9C22.5135 20.9 20.7807 21.4117 19.2607 22.3389L17.1314 23.6385C16.7831 23.8646 16.5519 24.2541 16.5519 24.7C16.5519 25.3992 17.1194 25.9667 17.8186 25.9667C17.9719 25.9667 18.1169 25.935 18.2531 25.8856L21.789 24.5917L27.057 30.2119C27.634 30.8269 27.9519 31.6299 27.9519 32.4735C27.9519 32.7383 27.9184 32.9979 27.8582 33.2487C27.8582 33.2487 30.3706 31.7281 31.1357 31.0435C32.1839 30.1061 33.3821 29.348 34.6817 28.8027L36.8186 27.9066V20.2667C33.0021 22.4472 32.6589 22.8 31.4555 22.8Z" fill="white"/>
<path id="Vector_3" d="M26.133 31.0777L21.4375 26.0686L18.6882 27.075C18.3987 27.1801 18.1068 27.2333 17.8186 27.2333C16.4215 27.2333 15.2853 26.0971 15.2853 24.7C15.2853 23.8406 15.7178 23.0464 16.4411 22.5758L16.9402 22.2718C15.8559 21.7917 14.6741 21.5333 13.4638 21.5333C11.8437 21.5333 9.78539 22.1667 8.31859 22.1667C6.62316 22.1667 5.94739 21.6936 2.61859 20.2667V27.8667L4.88719 28.3201C5.47429 28.4379 6.01769 28.7153 6.45722 29.1213C8.93799 31.4159 8.45349 31.0916 11.5537 32.6046C11.5112 32.402 11.4853 32.1955 11.4853 31.9833C11.4853 30.412 12.764 29.1333 14.3353 29.1333C17.8642 29.1333 20.9853 32.8035 20.9853 34.8333C20.9853 35.295 20.8523 35.7225 20.635 36.0956C23.1988 36.0576 24.6979 34.8916 25.7758 34.1728C26.3439 33.794 26.6853 33.1569 26.6853 32.4742C26.6853 31.9555 26.4877 31.4558 26.133 31.0777Z" fill="white"/>
<path id="Vector_4" d="M29.8348 20.9728C30.5461 21.3408 30.9413 21.5333 31.4549 21.5333C32.0502 21.5333 32.2295 21.458 34.2853 20.266V3.8C34.2853 3.1008 33.7178 2.53333 33.0186 2.53333H26.6853C25.9861 2.53333 25.4186 3.1008 25.4186 3.8V19.6663C27.596 19.8164 28.8734 20.475 29.8348 20.9728Z" fill="white"/>
<path id="Vector_5" d="M18.2556 21.4681C20.0701 20.361 21.7858 19.7081 24.1519 19.6441V7.6C24.1519 6.9008 23.5845 6.33334 22.8853 6.33334H16.5519C15.8527 6.33334 15.2853 6.9008 15.2853 7.6V20.4459C16.5906 20.6929 17.3113 21.0507 18.2556 21.4681Z" fill="white"/>
<path id="Vector_6" d="M8.31858 20.9C9.83478 20.9 11.7785 20.1691 14.0186 20.2952V12.0333C14.0186 11.3341 13.4511 10.7667 12.7519 10.7667H6.41858C5.71938 10.7667 5.15192 11.3341 5.15192 12.0333V19.9912C6.75805 20.6967 7.29322 20.9 8.31858 20.9Z" fill="white"/>
</g>
</svg>
