<svg width="74" height="45" viewBox="0 0 74 45" fill="none" xmlns="http://www.w3.org/2000/svg">
<g id="Page-1">
<g id="mastercard">
<path id="Fill-1" d="M44.2777 22.3439C44.2777 34.5714 34.3652 44.4827 22.1383 44.4827C9.91144 44.4827 0 34.5714 0 22.3439C0 10.1175 9.91131 0.205078 22.1383 0.205078C34.3652 0.205078 44.2777 10.1175 44.2777 22.3439Z" fill="#D9222A"/>
<path id="Fill-2" d="M51.8603 0.205078C46.1402 0.205078 40.9278 2.37525 36.9986 5.93601C36.1986 6.66158 35.4513 7.44536 34.7632 8.27885H39.2361C39.8476 9.02242 40.4109 9.8046 40.9238 10.6237H33.0756C32.6054 11.3765 32.1785 12.1587 31.8001 12.968H42.1987C42.5539 13.7276 42.8673 14.5092 43.1362 15.3118H30.8629C30.607 16.0754 30.3917 16.8571 30.2195 17.6561H43.7789C44.1042 19.167 44.2774 20.7354 44.2774 22.3438C44.2774 24.8023 43.8761 27.1676 43.1361 29.3764H30.8628C31.131 30.1795 31.4446 30.9617 31.7996 31.7207H42.1986C41.8195 32.5301 41.3935 33.3122 40.9226 34.0655H33.0755C33.5878 34.8832 34.1521 35.6664 34.7632 36.4083H39.2352C38.5481 37.2434 37.8003 38.0282 36.9991 38.7533C40.9283 42.3134 46.1402 44.4826 51.8603 44.4826C64.0873 44.4827 73.9997 34.5714 73.9997 22.3439C73.9997 10.118 64.0873 0.205078 51.8603 0.205078Z" fill="#EE9F2D"/>
<path id="Fill-3" d="M71.0491 34.6842C71.0491 34.2895 71.3688 33.9688 71.7639 33.9688C72.1591 33.9688 72.4788 34.2895 72.4788 34.6842C72.4788 35.0787 72.1591 35.3995 71.7639 35.3995C71.3688 35.3995 71.0491 35.0787 71.0491 34.6842ZM71.7639 35.2279C72.0641 35.2279 72.3076 34.9843 72.3076 34.6842C72.3076 34.3835 72.064 34.141 71.7639 34.141C71.4632 34.141 71.2208 34.3836 71.2208 34.6842C71.2208 34.9843 71.4634 35.2279 71.7639 35.2279ZM71.6673 34.9986H71.521V34.3701H71.7861C71.8416 34.3701 71.8981 34.3701 71.9469 34.4014C71.9979 34.4358 72.0266 34.4965 72.0266 34.5591C72.0266 34.6296 71.9849 34.6953 71.9176 34.7211L72.0333 34.9986H71.871L71.7749 34.7498H71.6675V34.9986H71.6673ZM71.6673 34.642H71.7485C71.7788 34.642 71.8108 34.6446 71.838 34.6297C71.8621 34.6143 71.8745 34.5854 71.8745 34.5577C71.8745 34.5336 71.8596 34.5057 71.839 34.4939C71.8134 34.478 71.7728 34.4814 71.7455 34.4814H71.6673V34.642Z" fill="black"/>
<path id="Fill-4" d="M16.9693 24.7681C16.7169 24.7387 16.606 24.7309 16.4328 24.7309C15.0704 24.7309 14.3807 25.1981 14.3807 26.1207C14.3807 26.6895 14.7173 27.0512 15.2425 27.0512C16.2216 27.0512 16.9271 26.1191 16.9693 24.7681ZM18.717 28.8376H16.7257L16.7714 27.8909C16.1639 28.639 15.3536 28.9947 14.2522 28.9947C12.9495 28.9947 12.0564 27.9772 12.0564 26.4998C12.0564 24.2768 13.6099 22.9797 16.2765 22.9797C16.5488 22.9797 16.8983 23.0043 17.2559 23.05C17.3304 22.749 17.35 22.62 17.35 22.458C17.35 21.8527 16.9311 21.6271 15.8083 21.6271C14.6326 21.6138 13.6628 21.9072 13.2646 22.0382C13.2897 21.8866 13.5976 19.9836 13.5976 19.9836C14.7954 19.6326 15.5852 19.5005 16.4743 19.5005C18.5379 19.5005 19.6312 20.4271 19.6291 22.1783C19.6331 22.6476 19.5554 23.2266 19.4343 23.9877C19.2258 25.3113 18.7782 28.1464 18.717 28.8376Z" fill="black"/>
<path id="Fill-5" d="M11.0506 28.8375H8.64721L10.0239 20.2047L6.94977 28.8375H5.31203L5.10951 20.254L3.66244 28.8375H1.4126L3.29183 17.6074H6.74775L6.95742 23.8934L9.06543 17.6074H12.9094L11.0506 28.8375Z" fill="black"/>
<path id="Fill-6" d="M54.8309 24.7681C54.5797 24.7387 54.4682 24.7309 54.2954 24.7309C52.9337 24.7309 52.244 25.1981 52.244 26.1207C52.244 26.6895 52.5801 27.0512 53.1053 27.0512C54.0844 27.0512 54.7904 26.1191 54.8309 24.7681ZM56.5803 28.8376H54.589L54.6341 27.8909C54.0267 28.639 53.2158 28.9947 52.1155 28.9947C50.8124 28.9947 49.9202 27.9772 49.9202 26.4998C49.9202 24.2768 51.4727 22.9797 54.1398 22.9797C54.4121 22.9797 54.761 23.0043 55.1182 23.05C55.1927 22.749 55.2123 22.62 55.2123 22.458C55.2123 21.8527 54.7939 21.6271 53.6711 21.6271C52.4954 21.6138 51.5267 21.9072 51.1269 22.0382C51.152 21.8866 51.461 19.9836 51.461 19.9836C52.6588 19.6326 53.4481 19.5005 54.3362 19.5005C56.401 19.5005 57.4941 20.4271 57.492 22.1783C57.496 22.6476 57.4185 23.2266 57.2972 23.9877C57.0895 25.3113 56.641 28.1464 56.5803 28.8376Z" fill="black"/>
<path id="Fill-7" d="M29.3985 28.6985C28.7407 28.9056 28.2279 28.9944 27.6718 28.9944C26.4432 28.9944 25.7726 28.2883 25.7726 26.9882C25.7551 26.5847 25.9493 25.5231 26.102 24.5539C26.2408 23.7008 27.1441 18.322 27.1441 18.322H29.5331L29.254 19.7043H30.697L30.3712 21.8992H28.923C28.6455 23.6361 28.2504 25.7996 28.2458 26.0863C28.2458 26.557 28.497 26.7626 29.0685 26.7626C29.3425 26.7626 29.5546 26.7347 29.7165 26.6763L29.3985 28.6985Z" fill="black"/>
<path id="Fill-8" d="M36.7238 28.6246C35.9031 28.8754 35.1112 28.9967 34.272 28.9946C31.5976 28.992 30.2036 27.5952 30.2036 24.9205C30.2036 21.7986 31.977 19.5005 34.3845 19.5005C36.3542 19.5005 37.6122 20.7872 37.6122 22.8053C37.6122 23.4749 37.5259 24.1286 37.3177 25.0515H32.5603C32.3993 26.3762 33.2472 26.9282 34.6368 26.9282C35.492 26.9282 36.2634 26.752 37.121 26.3531L36.7238 28.6246ZM35.3809 23.2102C35.3942 23.0201 35.6343 21.5801 34.2693 21.5801C33.5083 21.5801 32.9641 22.1603 32.7426 23.2102H35.3809Z" fill="black"/>
<path id="Fill-9" d="M20.1585 22.5916C20.1585 23.7469 20.7187 24.5435 21.989 25.1416C22.9623 25.599 23.1128 25.7347 23.1128 26.1493C23.1128 26.7187 22.6837 26.9757 21.7326 26.9757C21.0157 26.9757 20.3487 26.8637 19.5794 26.6153C19.5794 26.6153 19.2633 28.6283 19.2489 28.7245C19.7953 28.8437 20.2824 28.9541 21.75 28.9947C24.2861 28.9947 25.4573 28.0291 25.4573 25.9422C25.4573 24.6873 24.9669 23.9508 23.763 23.3973C22.7553 22.9348 22.6397 22.8316 22.6397 22.4051C22.6397 21.9113 23.0389 21.6594 23.8159 21.6594C24.2877 21.6594 24.9321 21.7098 25.5426 21.7966L25.8849 19.6783C25.2625 19.5797 24.319 19.5005 23.7697 19.5005C21.0809 19.5006 20.1502 20.905 20.1585 22.5916Z" fill="black"/>
<path id="Fill-10" d="M48.4124 19.7404C49.0799 19.7404 49.7022 19.9156 50.5599 20.3473L50.9531 17.9099C50.6011 17.7716 49.3616 16.9602 48.3116 16.9602C46.7032 16.9602 45.3435 17.7583 44.3872 19.0754C42.9924 18.6134 42.419 19.5471 41.716 20.4773L41.0916 20.6227C41.1388 20.3165 41.1815 20.0122 41.1671 19.7044H38.9599C38.6582 22.5308 38.1238 25.3935 37.7055 28.2236L37.5964 28.8373H40.0009C40.4023 26.2297 40.6222 24.5601 40.7559 23.4301L41.6613 22.9265C41.7966 22.4235 42.2198 22.2533 43.0694 22.2739C42.9585 22.87 42.8988 23.4969 42.8988 24.1466C42.8988 27.1343 44.5107 28.9946 47.0983 28.9946C47.7648 28.9946 48.3367 28.9068 49.2222 28.6668L49.6451 26.1065C48.8486 26.4987 48.195 26.6832 47.603 26.6832C46.2057 26.6832 45.3603 25.6518 45.3603 23.9472C45.3604 21.4742 46.6179 19.7404 48.4124 19.7404Z" fill="black"/>
<path id="Fill-12" d="M11.7424 28.1702H9.33848L10.7162 19.5383L7.64204 28.1702H6.0038L5.80129 19.5876L4.35422 28.1702H2.10449L3.98372 16.9417H7.43964L7.53683 23.893L9.86833 16.9417H13.6013L11.7424 28.1702Z" fill="white"/>
<path id="Fill-11" d="M68.7607 17.6074L68.2278 20.8522C67.5705 19.9873 66.8644 19.3613 65.9323 19.3613C64.7196 19.3613 63.6157 20.2808 62.8931 21.6338C61.887 21.4251 60.8463 21.071 60.8463 21.071L60.8458 21.0793C60.9269 20.3227 60.9594 19.8613 60.9521 19.7046H58.7444C58.4437 22.531 57.9093 25.3937 57.4916 28.2238L57.3816 28.8375H59.7856C60.1103 26.729 60.359 24.9782 60.542 23.5896C61.3632 22.8476 61.7744 22.2001 62.6043 22.2433C62.2369 23.1318 62.0215 24.1554 62.0215 25.2054C62.0215 27.4886 63.1767 28.9948 64.9239 28.9948C65.8048 28.9948 66.4805 28.6911 67.1399 27.987L67.0272 28.8361H69.3008L71.1313 17.6075H68.7607V17.6074ZM65.7549 26.7268C64.9369 26.7268 64.5237 26.1215 64.5237 24.9266C64.5237 23.1316 65.2971 21.8587 66.3875 21.8587C67.2134 21.8587 67.6604 22.4882 67.6604 23.6482C67.6604 25.4586 66.8747 26.7268 65.7549 26.7268Z" fill="black"/>
<path id="Fill-13" d="M17.6605 24.1024C17.4087 24.0733 17.2972 24.0655 17.1245 24.0655C15.7622 24.0655 15.073 24.5326 15.073 25.455C15.073 26.0228 15.4096 26.3858 15.9337 26.3858C16.9139 26.3857 17.6195 25.4535 17.6605 24.1024ZM19.4092 28.1704H17.4178L17.4631 27.2253C16.8562 27.972 16.0447 28.3292 14.9445 28.3292C13.6412 28.3292 12.7485 27.3117 12.7485 25.8343C12.7485 23.6102 14.3015 22.3141 16.9686 22.3141C17.241 22.3141 17.5905 22.3387 17.9477 22.3845C18.0221 22.0834 18.0418 21.9544 18.0418 21.7915C18.0418 21.1861 17.6234 20.9616 16.5006 20.9616C15.3244 20.9483 14.3551 21.2417 13.9563 21.3712C13.9815 21.2201 14.2893 19.3193 14.2893 19.3193C15.4867 18.9668 16.2775 18.8347 17.1655 18.8347C19.2297 18.8347 20.3233 19.7618 20.3213 21.5115C20.3249 21.9828 20.2468 22.5615 20.126 23.3215C19.9179 24.6441 19.47 27.4808 19.4092 28.1704Z" fill="white"/>
<path id="Fill-14" d="M51.6454 17.2439L51.2518 19.6818C50.3946 19.2506 49.7718 19.075 49.1048 19.075C47.3103 19.075 46.0523 20.8088 46.0523 23.2815C46.0523 24.9861 46.8981 26.0171 48.295 26.0171C48.887 26.0171 49.5402 25.8331 50.3367 25.4405L49.9147 27.9997C49.0287 28.2412 48.4574 28.3291 47.7903 28.3291C45.2033 28.3291 43.5908 26.4687 43.5908 23.481C43.5908 19.4665 45.818 16.6606 49.0036 16.6606C50.0529 16.6606 51.2929 17.1056 51.6454 17.2439Z" fill="white"/>
<path id="Fill-15" d="M55.5231 24.1024C55.2712 24.0733 55.1602 24.0655 54.987 24.0655C53.6252 24.0655 52.9355 24.5326 52.9355 25.455C52.9355 26.0228 53.2721 26.3858 53.7968 26.3858C54.7758 26.3857 55.4819 25.4535 55.5231 24.1024ZM57.2717 28.1704H55.2799L55.3256 27.2253C54.7182 27.972 53.9073 28.3292 52.807 28.3292C51.5043 28.3292 50.6112 27.3117 50.6112 25.8343C50.6112 23.6102 52.1647 22.3141 54.8307 22.3141C55.1036 22.3141 55.4525 22.3387 55.8102 22.3845C55.8842 22.0834 55.9042 21.9544 55.9042 21.7915C55.9042 21.1861 55.4858 20.9616 54.3631 20.9616C53.1874 20.9483 52.2176 21.2417 51.8188 21.3712C51.8439 21.2201 52.1523 19.3193 52.1523 19.3193C53.3497 18.9668 54.14 18.8347 55.028 18.8347C57.0927 18.8347 58.1858 19.7618 58.1833 21.5115C58.1873 21.9828 58.1097 22.5615 57.9885 23.3215C57.7809 24.6441 57.3319 27.4808 57.2717 28.1704Z" fill="white"/>
<path id="Fill-16" d="M30.0902 28.032C29.4318 28.2391 28.919 28.329 28.3635 28.329C27.1349 28.329 26.4643 27.6229 26.4643 26.3228C26.4473 25.9184 26.6417 24.8576 26.7942 23.8885C26.9324 23.0343 27.8358 17.656 27.8358 17.656H30.2244L29.9458 19.0388H31.1718L30.8455 21.2327H29.6152C29.3377 22.9707 28.9415 25.1326 28.9374 25.4198C28.9374 25.8922 29.1891 26.0961 29.7601 26.0961C30.0341 26.0961 30.2458 26.0694 30.4081 26.0109L30.0902 28.032Z" fill="white"/>
<path id="Fill-17" d="M37.415 27.9593C36.5949 28.21 35.802 28.3308 34.9633 28.3293C32.2889 28.3267 30.8949 26.9299 30.8949 24.2552C30.8949 21.1323 32.6683 18.8347 35.0758 18.8347C37.0455 18.8347 38.3035 20.121 38.3035 22.14C38.3035 22.8102 38.2172 23.4638 38.0096 24.3863H33.252C33.0911 25.711 33.939 26.2636 35.3286 26.2636C36.1833 26.2636 36.9551 26.0867 37.8123 25.6869L37.415 27.9593ZM36.0718 22.5435C36.0861 22.3538 36.3258 20.9134 34.9602 20.9134C34.1996 20.9134 33.6555 21.4951 33.434 22.5435H36.0718Z" fill="white"/>
<path id="Fill-18" d="M20.85 21.9262C20.85 23.0813 21.4102 23.877 22.6805 24.4761C23.6539 24.9336 23.8043 25.0697 23.8043 25.484C23.8043 26.0533 23.3748 26.3102 22.4245 26.3102C21.7072 26.3102 21.0401 26.1982 20.2702 25.9499C20.2702 25.9499 19.9552 27.9629 19.9408 28.0591C20.4861 28.1783 20.9737 28.2872 22.4414 28.3293C24.9779 28.3293 26.1487 27.3637 26.1487 25.2773C26.1487 24.0217 25.6589 23.2854 24.4544 22.732C23.4472 22.2684 23.3305 22.1667 23.3305 21.7397C23.3305 21.2464 23.7308 20.9924 24.5073 20.9924C24.9786 20.9924 25.623 21.0444 26.2345 21.1312L26.5763 19.0124C25.9544 18.9138 25.0109 18.8347 24.4616 18.8347C21.7724 18.8347 20.8422 20.2381 20.85 21.9262Z" fill="white"/>
<path id="Fill-19" d="M69.9926 28.1702H67.7186L67.8317 27.32C67.1724 28.0251 66.4966 28.3289 65.6158 28.3289C63.8685 28.3289 62.7139 26.8226 62.7139 24.5395C62.7139 21.5018 64.5048 18.9411 66.6245 18.9411C67.5568 18.9411 68.2623 19.3219 68.919 20.1863L69.4524 16.9417H71.823L69.9926 28.1702ZM66.4473 26.0601C67.5665 26.0601 68.3528 24.7918 68.3528 22.9825C68.3528 21.8226 67.9052 21.1931 67.0794 21.1931C65.9895 21.1931 65.2151 22.4654 65.2151 24.261C65.2151 25.4557 65.6292 26.0601 66.4473 26.0601Z" fill="white"/>
<path id="Fill-20" d="M59.4367 19.0391C59.1356 21.8655 58.6012 24.7284 58.1834 27.5568L58.0734 28.1705H60.4773C61.3371 22.5866 61.5452 21.4961 62.8931 21.6328C63.108 20.4898 63.5077 19.4889 63.8058 18.9837C62.799 18.774 62.2368 19.343 61.5009 20.4236C61.559 19.9564 61.6653 19.5027 61.6442 19.0392H59.4367" fill="white"/>
<path id="Fill-21" d="M39.6518 19.0391C39.3501 21.8655 38.8157 24.7284 38.3979 27.5568L38.2883 28.1705H40.6933C41.5521 22.5866 41.7597 21.4961 43.1071 21.6328C43.3229 20.4898 43.7226 19.4889 44.0196 18.9837C43.014 18.774 42.4512 19.343 41.7159 20.4236C41.774 19.9564 41.8793 19.5027 41.8592 19.0392H39.6518" fill="white"/>
<path id="Fill-22" d="M71.0482 27.4552C71.0482 27.0591 71.3684 26.74 71.7631 26.74C72.1582 26.74 72.4779 27.0591 72.4779 27.4552C72.4779 27.8494 72.1582 28.1702 71.7631 28.1702C71.3683 28.1702 71.0482 27.8495 71.0482 27.4552ZM71.7631 27.9985C72.0637 27.9985 72.3062 27.7549 72.3062 27.4553C72.3062 27.1553 72.0636 26.9117 71.7631 26.9117C71.4629 26.9117 71.2194 27.1554 71.2194 27.4553C71.2193 27.7549 71.4629 27.9985 71.7631 27.9985ZM71.6664 27.7677H71.5198V27.1409H71.7854C71.8404 27.1409 71.8975 27.1419 71.9452 27.1723C71.9967 27.2072 72.0259 27.2667 72.0259 27.3294C72.0259 27.4003 71.9843 27.4665 71.9164 27.4918L72.0325 27.7676H71.8696L71.7735 27.52H71.6662L71.6664 27.7677ZM71.6664 27.4127H71.7469C71.7772 27.4127 71.8102 27.4149 71.8368 27.4003C71.861 27.3849 71.8733 27.3557 71.8733 27.3278C71.8733 27.3046 71.859 27.277 71.8379 27.2632C71.8128 27.2489 71.7711 27.2529 71.7438 27.2529H71.6662L71.6664 27.4127Z" fill="white"/>
</g>
</g>
</svg>
