<svg width="73" height="44" viewBox="0 0 73 44" fill="none" xmlns="http://www.w3.org/2000/svg">
<g id="Group 1437256066">
<path id="Vector" d="M32.9368 21.8264H35.6279C35.7659 21.0493 35.5189 20.3846 34.6582 20.3846C33.7975 20.3846 33.1874 20.8277 32.9368 21.8264ZM17.767 23.2683L17.6326 23.2465C17.2331 23.1738 16.5285 23.0431 15.9111 23.4644C15.2175 23.9365 15.0214 24.7645 15.7441 25.0442C16.4377 25.3093 17.4619 24.8517 17.6035 24.129L17.767 23.2683ZM67.1587 23.0177C67.3839 22.2986 67.2604 21.3979 67.0207 21.0783C66.3561 20.1922 64.8271 20.8931 64.3586 22.6327C64.0536 23.7694 64.7218 24.6302 65.47 24.6302C66.2726 24.6302 66.7701 23.991 67.1587 23.0177ZM54.375 23.2683L54.2406 23.2465C53.8411 23.1738 53.1329 23.0431 52.5191 23.4644C51.8255 23.9365 51.6294 24.7645 52.3521 25.0442C53.0457 25.3093 54.0699 24.8517 54.2079 24.129L54.375 23.2683Z" fill="#8300FF"/>
<path id="Vector_2" d="M51.2082 0.275572C56.9104 0.275572 62.379 2.54074 66.411 6.57276C70.443 10.6048 72.7082 16.0734 72.7082 21.7755C72.7082 27.4777 70.443 32.9462 66.411 36.9783C62.379 41.0103 56.9104 43.2755 51.2082 43.2755C46.2708 43.2863 41.4832 41.58 37.6655 38.4489C40.5331 35.6948 42.6464 32.2511 43.8031 28.447H42.0163C40.9039 31.8339 38.9641 34.8897 36.3726 37.3376C33.7971 34.8882 31.8714 31.8368 30.7688 28.4579H28.982C30.124 32.246 32.214 35.6799 35.0542 38.4343C31.2519 41.552 26.4902 43.2619 21.5732 43.2755C15.871 43.2755 10.4025 41.0103 6.37043 36.9783C2.33841 32.9462 0.0732422 27.4777 0.0732422 21.7755C0.0732422 16.0734 2.33841 10.6048 6.37043 6.57276C10.4025 2.54074 15.871 0.275572 21.5732 0.275572C26.694 0.275572 31.3607 2.12776 35.0542 5.11669C32.214 7.87115 30.124 11.305 28.982 15.0931H30.7688C31.8714 11.7143 33.7971 8.66279 36.3726 6.21348C38.9641 8.66137 40.9039 11.7172 42.0163 15.104H43.8031C42.6464 11.3 40.5331 7.85627 37.6655 5.10216C41.4841 1.97024 46.2732 0.263901 51.2119 0.275572M58.3955 18.8556L56.9101 26.8091H59.0964L59.7683 23.1701C60.3784 20.9112 61.319 20.9184 61.8711 20.9293H61.9546L62.5429 18.8592C61.4498 18.8592 60.8033 19.2478 60.4692 19.64L60.2731 18.8556H58.3955ZM30.3075 16.8363H28.143L26.6467 24.3795C26.2291 26.5404 27.867 26.8491 28.3646 26.8491C28.9266 26.8673 29.4829 26.7317 29.9734 26.4568L30.1114 24.8516C28.8657 25.0441 28.8076 24.4884 28.9202 23.8783L29.5303 20.6606H30.638L31.0266 18.9428H29.8645L30.3075 16.8363ZM34.5494 18.8338C31.161 18.8338 30.6417 22.0915 30.54 22.7452L30.5291 22.796C30.4455 23.2972 30.3911 26.82 34.1354 26.82C35.0506 26.8454 36.3798 26.7365 36.9101 26.4568L37.2405 24.8225C36.4339 24.9553 35.6175 25.0197 34.8 25.015H34.7274C33.863 25.015 32.5629 25.0187 32.8025 23.2718H37.5166C37.7708 21.9934 38.3519 18.8338 34.5494 18.8338ZM26.5923 19.1062C25.6952 18.7648 24.9689 18.7866 24.5948 18.7975H24.4386C24.0718 18.7975 21.5441 18.7975 21.1519 20.686C20.8468 22.1568 21.3843 22.7633 21.9 22.9885C22.4448 23.2246 22.8334 23.4461 23.1639 23.635C23.3334 23.7367 23.4956 23.8262 23.6505 23.9037C24.1953 24.1761 24.0973 25.0949 23.3709 25.0949L23.1094 25.1058C22.5501 25.1385 21.4098 25.2003 20.5163 24.9025L20.2113 26.5367C21.21 26.8164 22.0126 26.8164 22.7608 26.8164H22.8443C23.5162 26.8236 25.8841 26.8454 26.2255 24.5683C26.4034 23.4062 25.895 22.8759 25.4773 22.629C24.9817 22.3053 24.4634 22.0176 23.9266 21.7683C23.4835 21.5721 23.1494 20.824 23.952 20.6061C24.4532 20.548 25.4773 20.548 26.0874 20.715L26.5923 19.1062ZM13.863 17.2177H10.3111L7.67812 23.043L7.26047 17.2177H3.79578L1.93633 26.8164H4.10085L5.43007 19.8797L6.01115 26.8164H8.06672L11.0883 20.0468L9.81359 26.8164H12.0544L13.863 17.2177ZM14.1099 20.7986L14.6329 20.7332C15.2866 20.6497 16.2345 20.5262 16.8011 20.548L17.019 20.5516C17.6981 20.5661 18.3591 20.5807 18.1339 21.6557C18.0589 21.6605 17.9378 21.6605 17.7707 21.6557C16.634 21.6194 13.616 21.5286 13.0858 24.4303C12.8352 26.0646 14.248 26.8999 15.3593 26.8418C16.467 26.7873 16.7756 26.6493 17.1606 26.3697L17.4403 26.8164H19.4631L20.3239 22.4873C20.5454 21.4087 20.9049 18.8011 17.2732 18.8011L16.9245 18.812C16.3362 18.8265 15.6171 18.8483 14.4441 19.0771L14.1099 20.7986ZM47.8344 19.0517C48.5571 19.0517 48.942 19.1062 49.4977 19.4367L50.9141 18.0239C50.3584 17.4138 49.7192 16.8145 47.9469 16.7492C46.447 16.6911 43.8794 17.7842 43.0659 20.7695C41.9546 24.8189 44.3951 26.8164 46.6431 26.8164C47.8344 26.8164 48.5571 26.6493 49.2762 26.3152L48.637 24.3758C46.4216 25.124 44.8382 23.9873 45.2013 21.6847C45.5028 19.7381 47.1116 19.0481 47.8344 19.0481M67.6346 19.4803C67.3441 19.1752 67.01 18.8265 66.2473 18.8265H66.0512C64.86 18.812 63.1422 18.7939 62.1434 22.2077C61.4389 24.6155 62.8662 26.8127 64.4169 26.8127C65.1396 26.7837 65.8587 26.4786 66.3054 26.1736L66.5814 26.8127H68.9094L70.7979 16.7165H68.5208L67.9397 19.7672C67.8325 19.6763 67.7306 19.5793 67.6346 19.4766M50.718 20.7913L51.2409 20.7259C51.8946 20.6424 52.8389 20.5189 53.4091 20.5407L53.627 20.5444C54.3061 20.5589 54.9671 20.5734 54.7383 21.6484C54.6657 21.6532 54.5446 21.6532 54.3751 21.6484C53.242 21.6121 50.224 21.5213 49.6902 24.4231C49.4432 26.0573 50.856 26.8926 51.9673 26.8345C53.075 26.7801 53.38 26.6421 53.7686 26.3624L54.0483 26.8091H56.0712L56.9319 22.4801C57.1498 21.4014 57.513 18.7938 53.8812 18.7938L53.5326 18.8047C52.9442 18.8193 52.2251 18.8411 51.0521 19.0699L50.718 20.7913ZM39.0492 18.9319L37.5783 26.8091H39.7428L40.4074 23.2028C41.0067 20.9874 41.9546 21.002 42.4993 21.0092H42.5974L43.153 18.9319C42.0744 18.9319 41.4352 19.3205 41.1011 19.7091L40.9086 18.9319H39.0492Z" fill="#8300FF"/>
</g>
</svg>
