<svg width="195" height="44" viewBox="0 0 195 44" fill="none" xmlns="http://www.w3.org/2000/svg">
<path d="M41.167 41.8806L0.25 41.7644V0.964355H41.167V41.8806Z" fill="#FFEE05" stroke="black" stroke-width="0.5"/>
<path d="M48.712 0.203527V12.4404V15.8526C48.712 16.2823 48.5887 16.9499 48.783 17.3447C48.9532 17.6907 49.4528 17.6168 49.771 17.6175C50.4361 17.6189 52.7483 17.9739 53.1799 17.4289C53.4539 17.0829 53.3008 16.268 53.3008 15.8526V11.8521C55.3207 11.8521 57.4462 12.0175 59.1839 10.788C61.989 8.80343 62.2024 3.65914 59.5323 1.45886C56.8559 -0.746592 51.9608 0.203527 48.712 0.203527ZM79.6571 1.14482C80.3561 5.0066 87.8607 4.96471 88.5994 1.14482C87.7559 0.817604 86.905 0.357546 86.0108 0.203527C85.2125 2.01834 83.044 2.01834 82.2456 0.203527C81.3514 0.357546 80.5006 0.817722 79.6571 1.14482ZM98.0123 0.203527V5.38065C96.29 5.38088 94.4692 5.786 93.2087 7.04839C91.0227 9.23737 91.0259 14.054 93.3164 16.1702C94.6041 17.3599 96.3124 17.7351 98.0123 17.7351V22.7946H102.013V17.7351C103.448 17.735 104.949 17.4821 106.131 16.6044C108.712 14.6881 109.209 9.99017 107.151 7.49856C105.88 5.95966 103.948 5.38194 102.013 5.38065V0.203527H98.0123ZM116.015 0.203527V5.38065C114.28 5.38182 112.428 5.84565 111.201 7.14734C108.963 9.52164 109.16 14.4751 111.779 16.4963C112.981 17.4242 114.532 17.735 116.015 17.7351V22.7946C116.883 22.7946 119.26 23.2155 119.944 22.6736C120.259 22.4243 120.133 21.7333 120.133 21.3827V17.7351C121.839 17.7349 123.577 17.3024 124.835 16.0773C127.045 13.9241 126.989 9.19889 124.829 7.0385C123.604 5.81388 121.814 5.38171 120.133 5.38065V0.203527H116.015ZM144.724 1.14482C145.463 4.9673 152.97 5.00425 153.666 1.14482C152.823 0.817722 151.972 0.357546 151.078 0.203527C150.58 1.33414 149.291 2.08412 148.139 1.29743C147.792 1.06105 147.555 0.407668 147.163 0.299184C146.533 0.124927 145.334 0.938678 144.724 1.14482Z" fill="#0E0D13"/>
<path d="M53.3007 4.24422V8.24473C54.136 8.24473 55.1293 8.39275 55.8846 7.96034C56.9659 7.3412 57.058 5.31577 55.9946 4.62403C55.2219 4.12127 54.1751 4.24422 53.3007 4.24422Z" fill="white"/>
<path d="M10.0798 4.51873C10.0275 4.57109 10.1517 4.5645 10.1582 4.55802C10.2105 4.50567 10.0863 4.51226 10.0798 4.51873Z" fill="#797611"/>
<path d="M31.0235 4.51873C30.9712 4.57109 31.0954 4.5645 31.1019 4.55802C31.1543 4.50567 31.03 4.51226 31.0235 4.51873Z" fill="#8C8A11"/>
<path d="M31.1802 4.47961V4.59728H31.5332C31.3863 4.51668 31.3511 4.50915 31.1802 4.47961Z" fill="#555111"/>
<path d="M31.5334 4.4795V4.59716H32.5923C32.2523 4.45444 31.9012 4.47973 31.5334 4.4795Z" fill="#232311"/>
<path d="M32.5922 4.47961V4.59728H32.9452C32.7984 4.51668 32.7631 4.50915 32.5922 4.47961Z" fill="#555111"/>
<path d="M33.0238 4.51873C32.9714 4.57109 33.0957 4.5645 33.1021 4.55802C33.1545 4.50567 33.0302 4.51226 33.0238 4.51873Z" fill="#BFB323"/>
<path d="M2.62604 12.9453C2.71354 11.6533 3.0478 10.3158 3.60776 9.17885C4.30766 7.75782 5.40227 6.40397 6.72583 5.57746C8.04247 4.75527 9.57852 4.45692 11.2013 5.11753L11.2955 4.88598L11.2013 5.11753C12.2396 5.54021 13.0273 6.32865 13.8513 7.15352C13.8817 7.18394 13.9121 7.21441 13.9426 7.24491L17.3548 10.6571C17.4352 10.7375 17.5408 10.8294 17.6475 10.9222C17.6605 10.9335 17.6735 10.9449 17.6865 10.9562C17.81 11.0638 17.9378 11.1766 18.0544 11.2935C18.1717 11.4111 18.2704 11.5257 18.3386 11.6341C18.4078 11.744 18.4339 11.8291 18.4339 11.8923C18.4339 11.9607 18.4041 12.0543 18.3254 12.1759C18.2482 12.2953 18.1371 12.4216 18.0064 12.5507C17.8764 12.6792 17.7345 12.8032 17.5987 12.9207C17.5869 12.9309 17.575 12.9411 17.5632 12.9513C17.4433 13.055 17.3254 13.1569 17.2372 13.2451L17.0271 13.4552L17.27 13.6263C17.8813 14.0568 18.3994 14.6078 18.9377 15.1814L18.9462 15.1904C19.4757 15.7547 20.0256 16.3406 20.6822 16.8031L20.9264 16.9752L21.0527 16.7044C21.3176 16.1364 21.8087 15.7079 22.3547 15.2448C22.3706 15.2314 22.3865 15.2179 22.4024 15.2044C22.9184 14.7671 23.4796 14.2916 23.7989 13.6511L23.5752 13.5395L23.7989 13.6511C23.9291 13.3899 23.905 13.1484 23.7976 12.9402C23.701 12.7528 23.5375 12.5949 23.4044 12.469C23.3915 12.4567 23.3787 12.4447 23.3662 12.4329C23.2371 12.3111 23.1324 12.2121 23.0604 12.1077C22.9889 12.0039 22.97 11.9232 22.992 11.8351L22.992 11.8351C23.0201 11.7222 23.0901 11.5918 23.2025 11.4454C23.3136 11.3006 23.4562 11.1527 23.6142 11.0044C23.7642 10.8638 23.9227 10.7278 24.0758 10.5964L24.0999 10.5757C24.2575 10.4404 24.412 10.3072 24.5328 10.1865C24.9761 9.7431 25.4283 9.24578 25.8843 8.74432C26.1997 8.39742 26.5169 8.04852 26.8343 7.71413C27.6228 6.88333 28.4356 6.11485 29.312 5.57065L29.1801 5.35827L29.312 5.57065C30.5853 4.7799 31.7974 4.59908 32.9014 4.82723C34.0112 5.05658 35.0351 5.70438 35.9126 6.61041C37.5219 8.27208 38.5974 10.7597 38.7847 12.9375C38.7832 12.9359 38.7816 12.9343 38.7801 12.9327C38.679 12.8289 38.569 12.716 38.4584 12.6109C38.3082 12.4683 38.1427 12.3263 37.9719 12.2241C37.8041 12.1237 37.6004 12.0432 37.3839 12.0716C37.1997 12.0958 37.0304 12.1829 36.8842 12.2852C36.7362 12.3887 36.5956 12.5193 36.4676 12.6514C36.3392 12.7839 36.2173 12.9244 36.1094 13.0492L36.1041 13.0553C35.9957 13.1806 35.9049 13.2856 35.8277 13.3628L32.7685 16.422C32.6643 16.5262 32.5555 16.6492 32.4478 16.7713L32.436 16.7847C32.3302 16.9046 32.2239 17.0252 32.1139 17.1395C31.8802 17.3825 31.6601 17.5643 31.452 17.6359C31.3778 17.6615 31.2664 17.6536 31.1091 17.5719C30.9545 17.4916 30.7869 17.3552 30.6268 17.1853C30.468 17.0168 30.3254 16.8247 30.2184 16.6436C30.1084 16.4575 30.0478 16.3029 30.0329 16.2073C30.0329 16.2073 30.0329 16.2073 30.0329 16.2073L29.7858 16.2458M2.62604 12.9453L27.8149 19.0696C28.0727 18.3703 27.9793 17.5728 27.8858 16.7752C27.7924 15.9777 27.6989 15.1802 27.9568 14.4808C28.1911 13.8453 28.9426 13.1874 29.5184 12.6948V12.4806H29.7684L29.932 12.6697C29.8796 12.715 29.8249 12.7618 29.7684 12.8101V14.8338C29.7684 14.9707 29.7637 15.111 29.7589 15.2525C29.7477 15.586 29.7362 15.9265 29.7858 16.2458M2.62604 12.9453C2.62841 12.9429 2.63079 12.9404 2.63317 12.938C2.7195 12.8494 2.81219 12.7542 2.90397 12.6658C3.04091 12.5339 3.19115 12.4015 3.34738 12.3012C3.50131 12.2024 3.68429 12.1195 3.88282 12.1195C4.09676 12.1195 4.29746 12.2162 4.46632 12.3306C4.6391 12.4477 4.80681 12.6029 4.95972 12.7609C5.11345 12.9198 5.25965 13.0893 5.38706 13.238C5.39399 13.2461 5.40086 13.2541 5.40765 13.262C5.52917 13.4039 5.62821 13.5194 5.70685 13.5981L5.70686 13.5981L9.94399 17.8352C10.0293 17.7541 10.118 17.6731 10.206 17.5929L10.2274 17.5735C10.3517 17.4603 10.475 17.3481 10.5934 17.2328C10.8456 16.9871 11.058 16.7435 11.1863 16.4869C11.4065 16.0465 11.4429 15.3586 11.4099 14.5925C11.3957 14.2616 11.3694 13.9279 11.344 13.606C11.3405 13.562 11.3371 13.5183 11.3337 13.4748C11.3057 13.1165 11.2808 12.7724 11.2808 12.4806V11.9987L11.6748 12.2762C11.9857 12.4952 12.3833 12.793 12.739 13.1314C13.09 13.4654 13.4234 13.8601 13.577 14.2767L13.5771 14.2767C13.8462 15.0067 13.7408 15.8551 13.645 16.6266C13.6391 16.6739 13.6333 16.721 13.6275 16.7677C13.524 17.6133 13.4585 18.3589 13.758 18.9578L13.758 18.9579C13.818 19.0779 13.9629 19.2389 14.1814 19.4427C14.2866 19.5409 14.402 19.643 14.523 19.7497L14.5477 19.7715C14.6603 19.8708 14.777 19.9737 14.8902 20.0776C15.1308 20.2983 15.3705 20.5367 15.537 20.7776C15.6994 21.0126 15.8281 21.302 15.7488 21.604L15.507 21.5405L15.7488 21.604C15.69 21.8279 15.5588 22.041 15.4055 22.2346C15.2505 22.4303 15.0607 22.621 14.8672 22.7995C14.6898 22.9631 14.5041 23.121 14.3342 23.2655C14.3187 23.2787 14.3033 23.2918 14.288 23.3048C14.1029 23.4624 13.9433 23.5998 13.8255 23.7176L9.11906 28.424L4.88323 32.6599C4.80169 32.7414 4.7048 32.8293 4.61051 32.9149C4.56128 32.9596 4.51276 33.0036 4.46751 33.0457C4.32751 33.1761 4.20355 33.3015 4.11253 33.4271C4.02139 33.5529 3.97626 33.6612 3.96968 33.7577C3.96363 33.8463 3.988 33.9549 4.09762 34.0917C4.68672 34.827 5.39082 35.488 6.10098 36.1546C6.4429 36.4756 6.78623 36.7979 7.1188 37.1304L6.94203 37.3072L7.11881 37.1305C7.19853 37.2102 7.28543 37.3085 7.37178 37.4062C7.38114 37.4168 7.3905 37.4274 7.39984 37.4379C7.49803 37.5489 7.59854 37.6612 7.70264 37.7643C7.92209 37.9815 8.11094 38.109 8.2656 38.1272C8.35729 38.138 8.50223 38.0959 8.70623 37.9575C8.90227 37.8246 9.11413 37.6296 9.32774 37.4072C9.54016 37.1861 9.74595 36.9468 9.93204 36.7294L9.96173 36.6947C10.1322 36.4954 10.2914 36.3094 10.4149 36.1889M2.62604 12.9453L10.4149 36.1889M29.7858 16.2458C29.874 16.8121 30.8726 18.0999 31.5334 17.8723C31.9308 17.7354 32.2991 17.3178 32.6222 16.9515C32.7357 16.8228 32.8436 16.7004 32.9453 16.5987L36.0045 13.5395C36.0882 13.4558 36.1841 13.345 36.2886 13.2242C36.6153 12.8464 37.0268 12.3707 37.4165 12.3195C37.7866 12.2709 38.2242 12.7202 38.5979 13.104C38.6708 13.1789 38.7414 13.2513 38.8085 13.3171L29.7858 16.2458ZM10.4149 36.1889C10.4149 36.1888 10.4149 36.1888 10.415 36.1887L10.4149 36.1889Z" fill="#0E0D13" stroke="black" stroke-width="0.5"/>
<path d="M71.5384 16.5987V17.893C72.3631 17.893 74.581 18.2881 75.2326 17.772C75.7101 17.3939 75.4212 15.6354 75.4212 15.0691V8.36237C75.4212 7.78618 75.6711 6.4306 75.3003 5.96243C75.081 5.68557 74.5525 5.77393 74.2446 5.77381H71.5384V7.18576C70.9348 6.58262 70.3463 5.97113 69.5381 5.64791C67.0049 4.63461 64.3843 6.16045 63.3387 8.48004C61.5218 12.5109 63.4841 19.1007 68.8321 18.2076C69.9765 18.0165 70.6792 17.2833 71.5384 16.5987ZM136.605 16.5987V17.893H139.312C139.62 17.8929 140.148 17.9811 140.367 17.7044C140.738 17.2362 140.488 15.8806 140.488 15.3044V8.5977C140.488 8.03139 140.778 6.27294 140.3 5.89477C139.648 5.37871 137.43 5.77381 136.605 5.77381V7.18576C135.995 6.57497 135.425 5.96996 134.605 5.64756C132.231 4.71474 129.544 6.00349 128.523 8.24471C126.669 12.3171 128.411 19.2486 134.017 18.1909C135.089 17.9886 135.812 17.277 136.605 16.5987ZM156.961 6.47979C157.102 7.4212 157.599 8.28837 157.902 9.18601C159.129 8.90538 160.206 7.97445 161.55 8.32814C162.163 8.48957 162.825 9.10259 162.402 9.76785C161.665 10.9255 160.226 9.81727 159.385 10.4836C158.929 10.8441 159.196 12.413 159.196 12.9512C160.085 12.9512 161.361 12.7302 162.131 13.2722C163.312 14.1036 161.892 15.1437 160.961 15.1715C159.687 15.2096 158.65 14.5244 157.549 14.0101C157.297 14.6615 156.45 16.1096 156.69 16.7953C156.907 17.4152 158.28 17.742 158.843 17.9036C160.937 18.5039 164.071 18.6538 165.765 17.0339C167.514 15.3615 167.012 12.3506 164.609 11.6569C166.684 9.83844 166.74 6.67205 163.785 5.69839C161.507 4.94783 159.088 5.60744 156.961 6.47979ZM180.14 14.1278C179.061 14.3845 177.572 14.3845 176.493 14.1278C175.024 16.6055 172.027 15.6585 171.904 12.8335H180.376C180.376 10.4672 179.893 7.95738 177.905 6.42437C175.659 4.69274 171.58 5.08926 169.704 7.19035C168.466 8.57699 168.065 10.5541 168.143 12.3629C168.323 16.477 171.413 18.3373 175.198 18.2442C177.143 18.1964 180.427 16.4589 180.14 14.1278Z" fill="#0E0D13"/>
<path d="M77.8921 5.77386V17.893C78.93 17.893 80.6781 18.2332 81.6326 17.8221C82.1857 17.5838 82.5391 16.6192 82.8339 16.1281L85.6578 11.4216C85.7578 12.9749 85.6578 14.57 85.6578 16.1281C85.6578 16.5371 85.4839 17.485 85.8464 17.7721C86.5306 18.3139 88.9074 17.893 89.7759 17.893V9.42138C89.7759 8.52621 90.1016 6.85282 89.705 6.0466C89.4347 5.49736 87.7124 5.77386 87.1874 5.77386C86.803 5.77386 86.2757 5.68656 85.9318 5.89482C85.3915 6.2218 85.0383 7.13392 84.7106 7.65645C83.8201 9.07628 82.6035 10.5601 82.0103 12.1276C81.6055 10.7583 81.8926 8.96556 81.8926 7.53879C81.8926 7.1298 82.0665 6.18192 81.704 5.89482C81.036 5.36581 78.7388 5.77386 77.8921 5.77386ZM142.959 5.77386V17.893C143.935 17.893 145.962 18.2812 146.803 17.7721C147.369 17.4293 147.734 16.4461 148.066 15.8928C148.952 14.4159 149.743 12.7491 150.842 11.4216V17.893H154.843V9.42138C154.843 8.52621 155.169 6.85282 154.772 6.0466C154.502 5.49736 152.779 5.77386 152.254 5.77386C151.874 5.77386 151.342 5.68409 151.005 5.89482C150.473 6.22686 150.115 7.13615 149.789 7.65645C148.883 9.10122 147.753 10.5614 147.077 12.1276C146.673 10.7583 146.96 8.96556 146.96 7.53879C146.96 7.1298 147.134 6.18192 146.771 5.89482C146.103 5.36581 143.806 5.77386 142.959 5.77386ZM182.376 5.77386V17.893H186.376V13.0689H190.024V17.893H194.024V5.77386C193.177 5.77386 190.88 5.36581 190.212 5.89482C189.936 6.11402 190.024 6.64256 190.024 6.95048V10.0097H186.376V6.95048C186.376 6.64256 186.465 6.11402 186.188 5.89482C185.52 5.36581 183.223 5.77386 182.376 5.77386Z" fill="#0E0D13"/>
<path d="M173.787 8.07172C173.207 8.20574 171.366 9.66039 172.212 10.3594C172.45 10.5564 172.914 10.4803 173.198 10.4804C174.076 10.4807 175.281 10.6963 176.122 10.443C176.747 10.2548 176.249 9.29247 176.026 8.95254C175.53 8.20045 174.658 7.87052 173.787 8.07172Z" fill="white"/>
<path d="M98.13 15.3045C98.7093 13.3449 98.2477 10.644 98.2477 8.59775C95.7278 8.71317 94.8308 11.9135 95.9572 13.8925C96.46 14.7761 97.2035 15.0641 98.13 15.3045ZM101.778 8.59775C101.778 10.644 101.316 13.3449 101.895 15.3045C102.646 15.108 103.336 14.9027 103.82 14.2437C105.228 12.3267 104.461 8.72059 101.778 8.59775ZM116.25 15.3045V8.59775C112.491 8.9052 112.857 14.6442 116.25 15.3045ZM119.897 15.3045C122.153 14.7193 123.106 12.5805 122.285 10.3627C122.055 9.74401 120.82 8.11486 119.968 8.72341C119.688 8.92414 119.78 9.47962 119.78 9.77437V12.7159C119.78 13.555 119.659 14.4964 119.897 15.3045Z" fill="white"/>
<path d="M68.8321 9.00583C65.8135 9.57167 66.3986 15.2445 69.6557 14.6774C72.7274 14.1426 72.1183 8.38987 68.8321 9.00583ZM133.899 9.00583C130.935 9.56131 131.502 15.2381 134.723 14.6774C137.817 14.1386 137.195 8.38811 133.899 9.00583Z" fill="white"/>
<path d="M2.8632 10.3234C2.85668 10.3299 2.85012 10.4541 2.90243 10.4018C2.90897 10.3953 2.9155 10.271 2.8632 10.3234Z" fill="#3D3311"/>
<path d="M38.5146 10.4412C38.5081 10.4477 38.5015 10.5719 38.5539 10.5196C38.5604 10.5131 38.567 10.3888 38.5146 10.4412Z" fill="#3D3311"/>
<path d="M2.74559 10.6764C2.73907 10.6829 2.73252 10.8071 2.78482 10.7548C2.79136 10.7483 2.79789 10.6241 2.74559 10.6764Z" fill="#454511"/>
<path d="M2.62762 11.0293C2.62111 11.0358 2.61455 11.16 2.66685 11.1077C2.67341 11.1012 2.67991 10.977 2.62762 11.0293Z" fill="#676711"/>
<path d="M38.7499 11.1471C38.7434 11.1536 38.7368 11.2778 38.7892 11.2254C38.7957 11.219 38.8022 11.0947 38.7499 11.1471Z" fill="#555111"/>
<path d="M2.51002 11.3823C2.5035 11.3888 2.49695 11.5131 2.54925 11.4607C2.5558 11.4542 2.56231 11.33 2.51002 11.3823Z" fill="#999923"/>
<path d="M2.39242 11.9707C2.38587 11.9772 2.37937 12.1015 2.43165 12.0491C2.43817 12.0426 2.44472 11.9184 2.39242 11.9707Z" fill="#AB9923"/>
<path d="M2.39242 12.206C2.38587 12.2124 2.37936 12.3367 2.43165 12.2843C2.43817 12.2778 2.44474 12.1536 2.39242 12.206Z" fill="#676711"/>
<path d="M3.84374 12.1668C3.79144 12.2192 3.91564 12.2126 3.92217 12.2061C3.97447 12.1537 3.85027 12.1603 3.84374 12.1668Z" fill="#ABAB23"/>
<path d="M29.6116 12.5198C29.5593 12.5721 29.6835 12.5655 29.69 12.5591C29.7423 12.5067 29.6181 12.5133 29.6116 12.5198Z" fill="#454511"/>
<path d="M31.3764 18.0499C31.324 18.1022 31.4483 18.0956 31.4547 18.0892C31.5071 18.0368 31.3828 18.0434 31.3764 18.0499Z" fill="#676711"/>
<path d="M48.0059 43.0726C51.7843 43.0726 57.0652 44.0236 60.3604 41.8079C62.923 40.0848 64.5796 34.9881 61.4194 32.95C59.6234 31.7918 56.9789 32.1301 54.948 32.1301C55.1666 31.4843 55.1061 30.2109 55.6056 29.7301C56.0175 29.3336 57.1248 29.5415 57.6542 29.5415H63.3019C63.4908 28.0793 64.0086 26.6578 64.1256 25.188H55.0656C54.3143 25.188 52.3381 24.8344 51.7403 25.309C51.4287 25.5563 51.4199 26.2383 51.3475 26.6L50.6651 29.8945C49.7925 34.2569 48.5755 38.6621 48.0059 43.0726ZM63.0666 43.0726H66.5965C67.0287 43.0726 67.6989 43.1949 68.0802 42.9517C68.9903 42.3713 68.9241 40.5159 69.9161 40.0844C70.3933 39.8768 71.1442 40.0134 71.6559 40.0134H75.5388C75.5416 41.0381 75.753 42.0498 75.7741 43.0726C77.3394 43.0726 79.3324 43.3987 80.8336 42.955C79.8378 38.8202 79.6698 34.344 79.0839 30.1298L78.6162 26.7176C78.5709 26.3402 78.6102 25.6855 78.3598 25.3766C78.1053 25.0628 77.4228 25.188 77.0684 25.188C76.0623 25.188 73.2801 24.71 72.5542 25.4608C71.1222 26.9416 70.246 29.613 69.2663 31.4241L65.4362 38.4838C64.6346 39.93 63.5254 41.4801 63.0666 43.0726ZM86.3637 25.188C85.5582 31.1697 83.936 37.1594 82.7162 43.0726H87.5403C87.7642 41.3385 88.2092 39.6103 88.5522 37.8955C88.6522 37.3955 88.664 36.3285 89.1208 36.0162C89.5071 35.7521 90.2713 35.8952 90.7172 35.8952H94.6C94.4959 38.3146 93.3556 40.6544 93.3057 43.0726H98.0122C98.3835 40.3147 99.137 37.5664 99.683 34.8363C100.314 31.6784 100.788 28.4054 101.66 25.3057C101.054 25.1267 100.405 25.188 99.7771 25.188C99.0969 25.188 97.5816 24.9042 97.0137 25.309C96.6259 25.5855 96.6153 26.4071 96.5297 26.8353L95.8707 30.1298C95.7897 30.5353 95.7674 31.1645 95.4556 31.4708C95.1135 31.807 94.3313 31.6594 93.894 31.6594H89.8935C90.0663 29.4886 91.025 27.3636 91.0701 25.188H86.3637ZM101.66 43.0726H104.954C105.319 43.0726 105.973 43.1945 106.279 42.9517C106.699 42.6183 106.712 41.4534 106.813 40.9547C107.166 39.2198 107.322 37.1702 108.013 35.5423C108.715 37.3512 109.659 39.0601 110.434 40.837C110.689 41.421 111.015 42.6042 111.576 42.9517C111.989 43.2078 112.724 43.0726 113.191 43.0726H117.191C116.345 40.7476 114.856 38.5786 113.75 36.3659C113.466 35.7978 112.542 34.6566 112.681 34.0127C112.858 33.1893 114.255 32.131 114.837 31.5418L118.25 27.8942C119.025 27.114 120.139 26.1834 120.603 25.188C119.078 25.188 116.616 24.7114 115.195 25.259C114.394 25.5678 113.659 26.7882 113.106 27.4236C111.63 29.1202 110.175 30.8765 108.602 32.483C108.797 30.025 109.698 27.6342 110.014 25.188H106.719C106.345 25.188 105.693 25.0675 105.377 25.309C105.079 25.5361 105.069 26.1444 105.001 26.4823L104.319 29.7768C103.45 34.1197 102.011 38.6609 101.66 43.0726Z" fill="#0E0D13"/>
<path d="M74.5976 29.6592C73.4808 31.5728 72.152 33.8828 71.5384 36.0129H75.3036C75.2413 34.5607 74.993 33.1064 74.853 31.6594C74.7907 31.0161 74.8493 30.2576 74.5976 29.6592Z" fill="white"/>
<path d="M37.9262 33.8559C37.9197 33.8623 37.9132 33.9866 37.9655 33.9342C37.972 33.9278 37.9786 33.8035 37.9262 33.8559Z" fill="#676711"/>
<path d="M53.5363 39.5428C54.3321 39.5428 55.0986 39.4991 55.8896 39.4352C57.2756 39.3232 59.2506 37.7907 57.9564 36.2652C57.4861 35.7109 54.7695 35.355 54.2616 35.9662C53.7041 36.6372 53.554 38.6856 53.5363 39.5428Z" fill="white"/>
<path d="M8.31459 38.523C8.2623 38.5754 8.38648 38.5688 8.39302 38.5623C8.44532 38.5099 8.32112 38.5165 8.31459 38.523Z" fill="#555111"/>
</svg>
