<svg width="151" height="44" viewBox="0 0 151 44" fill="none" xmlns="http://www.w3.org/2000/svg">
<g id="Group 1437256064">
<g id="&#208;&#161;&#208;&#145;&#208;&#149;&#208;&#160;">
<path id="Vector" d="M130.173 7.77539H141.105C146.48 7.77539 150.185 11.3529 150.185 16.7463C150.185 22.1216 146.353 25.7172 140.832 25.7172H135.657V33.9799H130.173V7.77539ZM135.657 12.1156V21.4315H139.634C142.776 21.4315 144.61 19.7608 144.61 16.7645C144.61 13.7863 142.794 12.1156 139.652 12.1156H135.657Z" fill="#8300FF"/>
<path id="Vector_2" d="M125.814 29.44V33.9799H108.454V7.77539H125.814V12.2972H113.938V18.6168H125.142V22.8298H113.938V29.44H125.814Z" fill="#8300FF"/>
<path id="Vector_3" d="M104.531 25.7172C104.531 30.6748 100.826 33.9799 95.4512 33.9799H84.7006V7.77539H102.116V12.2972H90.1849V17.618H95.2696C100.736 17.618 104.531 20.8686 104.531 25.7172ZM90.1849 29.6034H94.0892C97.1401 29.6034 98.9197 28.2414 98.9197 25.7172C98.9197 23.1749 97.1401 21.7947 94.0711 21.7947H90.1849V29.6034Z" fill="#8300FF"/>
<path id="Vector_4" d="M69.4462 34.5611C61.8191 34.5611 57.0431 29.3311 57.0431 20.8686C57.0431 12.4243 61.8555 7.19434 69.4462 7.19434C75.5479 7.19434 80.2331 11.0442 80.9232 16.6192H75.5298C74.8397 13.7318 72.4608 11.8614 69.4462 11.8614C65.3058 11.8614 62.6363 15.3299 62.6363 20.8505C62.6363 26.4437 65.2695 29.894 69.4644 29.894C72.5334 29.894 74.7852 28.2052 75.5479 25.4086H80.9414C80.0879 31.0018 75.675 34.5611 69.4462 34.5611Z" fill="#8300FF"/>
</g>
<g id="Group 1437256063">
<path id="Vector (Stroke)" fill-rule="evenodd" clip-rule="evenodd" d="M33.4838 6.1455C29.9172 3.61063 25.5909 2.37178 21.2232 2.6346C16.8555 2.89743 12.709 4.64613 9.47217 7.5904C6.23531 10.5347 4.10274 14.4974 3.4285 18.8208C2.75426 23.1441 3.57891 27.568 5.76554 31.3581C7.95217 35.1482 11.3693 38.0765 15.4495 39.6568C19.5298 41.2371 24.0278 41.3744 28.1969 40.0459C32.366 38.7174 35.9553 36.0031 38.3691 32.3534C40.7828 28.7038 41.8758 24.3384 41.4665 19.982L41.3578 18.8248L43.6721 18.6074L43.7808 19.7646C44.2396 24.6491 43.0142 29.5436 40.3079 33.6357C37.6015 37.7277 33.5771 40.7711 28.9026 42.2606C24.2282 43.7502 19.1849 43.5962 14.61 41.8243C10.0351 40.0524 6.20384 36.7692 3.75215 32.5197C1.30045 28.2702 0.375846 23.31 1.13182 18.4626C1.88778 13.6152 4.27886 9.17206 7.9081 5.87088C11.5373 2.56971 16.1864 0.609038 21.0836 0.314351C25.9808 0.0196644 30.8314 1.40869 34.8304 4.25084L35.7777 4.92414L34.4311 6.8188L33.4838 6.1455Z" fill="#8300FF"/>
<path id="Vector (Stroke)_2" fill-rule="evenodd" clip-rule="evenodd" d="M41.2968 11.2878L23.0814 25.2363C22.7052 25.5244 22.1917 25.5552 21.7837 25.3142L12.3089 19.7169L13.4912 17.7156L22.2908 22.914L39.8836 9.44226L41.2968 11.2878Z" fill="#8300FF"/>
</g>
</g>
</svg>
