<svg width="10" height="10" viewBox="0 0 10 10" fill="none" xmlns="http://www.w3.org/2000/svg">
<g id="mdi:secure">
<path id="Vector" d="M4.99999 7.08333C5.221 7.08333 5.43296 6.99553 5.58925 6.83925C5.74553 6.68297 5.83332 6.47101 5.83332 6.25C5.83332 6.02898 5.74553 5.81702 5.58925 5.66074C5.43296 5.50446 5.221 5.41666 4.99999 5.41666C4.77898 5.41666 4.56701 5.50446 4.41073 5.66074C4.25445 5.81702 4.16666 6.02898 4.16666 6.25C4.16666 6.47101 4.25445 6.68297 4.41073 6.83925C4.56701 6.99553 4.77898 7.08333 4.99999 7.08333ZM7.49999 3.33333C7.721 3.33333 7.93296 3.42113 8.08925 3.57741C8.24553 3.73369 8.33332 3.94565 8.33332 4.16666V8.33333C8.33332 8.55434 8.24553 8.76631 8.08925 8.92259C7.93296 9.07887 7.721 9.16666 7.49999 9.16666H2.49999C2.27898 9.16666 2.06701 9.07887 1.91073 8.92259C1.75445 8.76631 1.66666 8.55434 1.66666 8.33333V4.16666C1.66666 3.94565 1.75445 3.73369 1.91073 3.57741C2.06701 3.42113 2.27898 3.33333 2.49999 3.33333H2.91666V2.5C2.91666 1.94746 3.13615 1.41756 3.52685 1.02686C3.91755 0.636158 4.44746 0.416664 4.99999 0.416664C5.27358 0.416664 5.54449 0.470551 5.79725 0.575248C6.05001 0.679946 6.27967 0.833403 6.47313 1.02686C6.66658 1.22031 6.82004 1.44998 6.92474 1.70274C7.02944 1.9555 7.08332 2.22641 7.08332 2.5V3.33333H7.49999ZM4.99999 1.25C4.66847 1.25 4.35053 1.38169 4.11611 1.61611C3.88169 1.85053 3.74999 2.16848 3.74999 2.5V3.33333H6.24999V2.5C6.24999 2.16848 6.11829 1.85053 5.88387 1.61611C5.64945 1.38169 5.33151 1.25 4.99999 1.25Z" fill="#00FF8D"/>
</g>
</svg>
