<svg width="87" height="45" viewBox="0 0 87 45" fill="none" xmlns="http://www.w3.org/2000/svg">
<g id="Group 1437256067">
<path id="path60" d="M76.3086 12.8352V23.5925H72.4674V16.0465H68.7689V23.5925H64.9277V12.8345H76.3086V12.8352Z" fill="#8300FF"/>
<path id="path62" fill-rule="evenodd" clip-rule="evenodd" d="M57.0389 23.9771C60.4775 23.9771 63.031 21.8688 63.031 18.6725C63.031 15.579 61.1471 13.5704 57.9985 13.5704C56.5454 13.5704 55.3464 14.0819 54.4433 14.9644C54.6589 13.1403 56.2015 11.8085 57.8999 11.8085C58.2918 11.8085 61.2428 11.8023 61.2428 11.8023L62.9115 8.60901C62.9115 8.60901 59.2067 8.69334 57.4844 8.69334C53.5494 8.76191 50.8914 12.3387 50.8914 16.683C50.8914 21.7441 53.4838 23.9771 57.0389 23.9771ZM57.0598 16.3988C58.3366 16.3988 59.2217 17.2378 59.2217 18.6722C59.2217 19.9632 58.4352 21.0269 57.0598 21.0298C55.7442 21.0298 54.8591 20.0442 54.8591 18.6942C54.8591 17.2594 55.7442 16.3988 57.0598 16.3988Z" fill="#8300FF"/>
<path id="path64" d="M47.7648 19.991C47.7648 19.991 46.8576 20.5139 45.5028 20.6129C43.9452 20.6591 42.5574 19.6753 42.5574 17.9274C42.5574 16.2224 43.782 15.2452 45.4636 15.2452C46.4946 15.2452 47.8586 15.9599 47.8586 15.9599C47.8586 15.9599 48.8567 14.1284 49.3737 13.2124C48.427 12.4949 47.166 12.1014 45.6993 12.1014C41.9978 12.1014 39.1309 14.5148 39.1309 17.9058C39.1309 21.34 41.8255 23.6973 45.6993 23.6261C46.7821 23.5858 48.2759 23.2056 49.1863 22.6207L47.7648 19.991Z" fill="#8300FF"/>
<path id="path66" d="M0.531738 9.85291L5.86013 19.3771V25.1865L0.537972 34.692L0.531738 9.85291Z" fill="#8300FF"/>
<path id="path68" d="M20.9906 15.9113L25.9835 12.8511L36.2018 12.8416L20.9906 22.16V15.9113Z" fill="#8300FF"/>
<path id="path70" d="M20.9623 9.79674L20.9906 22.4064L15.6497 19.1247V0.275513L20.9623 9.79674Z" fill="#8300FF"/>
<path id="path72" d="M36.2017 12.8415L25.9831 12.8511L20.9623 9.79674L15.6497 0.275513L36.2017 12.8415Z" fill="#8300FF"/>
<path id="path74" d="M20.9906 34.7448V28.6269L15.6497 25.4076L15.6527 44.2755L20.9906 34.7448Z" fill="#8300FF"/>
<path id="path76" d="M25.971 31.7124L5.85977 19.3771L0.531738 9.85291L36.1801 31.7L25.971 31.7124Z" fill="#8300FF"/>
<path id="path78" d="M15.6531 44.2755L20.9903 34.7447L25.9708 31.7124L36.1798 31.7L15.6531 44.2755Z" fill="#8300FF"/>
<path id="path80" d="M0.538025 34.6919L15.6934 25.4079L10.5982 22.2817L5.86019 25.1865L0.538025 34.6919Z" fill="#8300FF"/>
<path id="path82" d="M42.5586 30.8322C42.4413 30.9818 42.2869 31.0948 42.1017 31.171C41.9117 31.2484 41.7084 31.2877 41.5033 31.2869C41.2993 31.2897 41.0965 31.2556 40.9046 31.1864C40.7322 31.1238 40.5746 31.0262 40.4418 30.8997C40.3107 30.773 40.2078 30.6201 40.1397 30.4509C40.066 30.2656 40.0293 30.0677 40.0315 29.8683C40.0315 29.6703 40.0656 29.4869 40.1364 29.3131C40.2042 29.139 40.3029 28.9897 40.4264 28.8643C40.55 28.7364 40.6981 28.6388 40.8646 28.5626C41.0344 28.4892 41.2195 28.4496 41.423 28.4496C41.6423 28.4496 41.8458 28.4771 42.031 28.5318C42.2161 28.5868 42.3734 28.6784 42.5029 28.8068L42.2777 29.1881C42.1688 29.0894 42.0406 29.0145 41.9012 28.9681C41.7686 28.9254 41.6301 28.9039 41.4909 28.9043C41.3677 28.9043 41.2503 28.9285 41.1363 28.9743C41.0239 29.0196 40.9212 29.0859 40.8338 29.1698C40.7444 29.256 40.674 29.3599 40.627 29.4748C40.5746 29.5936 40.55 29.7249 40.55 29.8712C40.55 30.0208 40.5775 30.155 40.6299 30.2709C40.6827 30.39 40.7535 30.4909 40.843 30.5759C40.9324 30.6617 41.0373 30.7255 41.1576 30.7684C41.2782 30.8143 41.4047 30.8355 41.5404 30.8355C41.7068 30.8355 41.8583 30.8018 41.9877 30.7376C42.116 30.6757 42.2312 30.5898 42.3272 30.4846L42.5586 30.8322ZM43.194 31.2227V28.5076H43.6817V30.5305L45.2675 28.5076H45.7552V31.2231H45.2675V29.2002L43.6817 31.2231L43.194 31.2227ZM48.9855 30.8322C48.8656 30.9831 48.7082 31.0999 48.529 31.171C48.3389 31.2483 48.1355 31.2877 47.9303 31.2869C47.7264 31.2896 47.5237 31.2556 47.3319 31.1864C47.1594 31.1238 47.0017 31.0262 46.8688 30.8997C46.7376 30.773 46.6347 30.6201 46.5666 30.4509C46.4929 30.2656 46.4562 30.0677 46.4585 29.8683C46.4585 29.6703 46.4926 29.4869 46.5633 29.3131C46.6315 29.139 46.7302 28.9897 46.8534 28.8643C46.9769 28.7364 47.1251 28.6388 47.2915 28.5626C47.4674 28.4851 47.6578 28.4466 47.85 28.4496C48.0692 28.4496 48.2727 28.4771 48.4579 28.5318C48.6431 28.5868 48.8004 28.6784 48.9302 28.8068L48.7047 29.1881C48.596 29.0893 48.4678 29.0144 48.3285 28.9681C48.1959 28.9254 48.0574 28.9039 47.9182 28.9043C47.6731 28.9051 47.4377 29.0001 47.2607 29.1698C47.1721 29.2566 47.1018 29.3604 47.0539 29.4748C47.0015 29.5936 46.9769 29.7249 46.9769 29.8712C46.9769 30.0208 47.0048 30.155 47.0572 30.2709C47.1097 30.39 47.1804 30.4909 47.2699 30.5759C47.3594 30.6617 47.4646 30.7255 47.5849 30.7684C47.7051 30.811 47.8316 30.8355 47.9673 30.8355C48.1341 30.8355 48.2823 30.8018 48.4146 30.7376C48.5429 30.6757 48.6581 30.5898 48.7542 30.4846L48.9855 30.8322ZM49.2356 28.5076H51.7377V28.9897H50.732V31.2227H50.2443V28.9897H49.2385V28.5076H49.2356Z" fill="#8300FF"/>
<path id="path84" fill-rule="evenodd" clip-rule="evenodd" d="M54.015 31.1956C54.2002 31.1376 54.3575 31.0489 54.4931 30.9272L54.345 30.5488C54.2555 30.6283 54.1353 30.6954 53.9904 30.7504C53.8452 30.8054 53.6817 30.8326 53.5028 30.8326C53.2344 30.8326 53.0122 30.7625 52.8362 30.6192C52.6605 30.4754 52.5648 30.2745 52.5432 30.0178H54.6537C54.6754 29.9232 54.6845 29.8165 54.6845 29.6915C54.6845 29.5052 54.6504 29.3377 54.5826 29.1851C54.5194 29.037 54.4272 28.9031 54.3113 28.7913C54.1937 28.6806 54.0552 28.5946 53.9039 28.5383C53.7455 28.4769 53.577 28.4458 53.4071 28.4467C53.1786 28.4467 52.9781 28.4863 52.8024 28.5596C52.6364 28.6295 52.4862 28.7322 52.361 28.8617C52.2394 28.9905 52.146 29.1433 52.0867 29.3102C52.0215 29.4879 51.9891 29.676 51.991 29.8653C51.991 30.0791 52.028 30.2741 52.0959 30.4483C52.1619 30.617 52.2628 30.7698 52.3921 30.8967C52.5186 31.0214 52.6726 31.1164 52.8549 31.1835C53.05 31.2527 53.2558 31.2867 53.4628 31.2839C53.6503 31.2828 53.8364 31.2527 54.015 31.1956ZM52.7808 29.1056C52.9319 28.9684 53.1324 28.9013 53.3854 28.9013C53.623 28.9013 53.8144 28.9655 53.9534 29.0938C54.0924 29.2218 54.1661 29.3989 54.1785 29.6244H52.5124C52.536 29.4247 52.6314 29.2401 52.7808 29.1056Z" fill="#8300FF"/>
<path id="path86" d="M55.3478 28.5076H55.7922L56.8475 29.8532L57.847 28.5076H58.279V31.2231H57.7917V29.2431L56.8413 30.503H56.8226L55.8355 29.2427V31.2227H55.3478V28.5076Z" fill="#8300FF"/>
<path id="path88" fill-rule="evenodd" clip-rule="evenodd" d="M59.6055 28.5167C59.4575 28.5554 59.3161 28.6159 59.1861 28.6964L59.3155 29.0814C59.4266 29.0264 59.5377 28.9806 59.6488 28.941C59.7599 28.901 59.9018 28.8827 60.0716 28.8827C60.2072 28.8827 60.3154 28.9043 60.3986 28.9468C60.4819 28.9864 60.5435 29.0477 60.5867 29.121C60.63 29.1943 60.6578 29.2856 60.6732 29.3923C60.6886 29.499 60.6949 29.6149 60.6949 29.7403C60.5951 29.6708 60.4814 29.6238 60.3616 29.6028C60.2458 29.5798 60.128 29.5675 60.01 29.5661C59.8648 29.5661 59.7291 29.5878 59.5993 29.6241C59.4699 29.6607 59.3588 29.7157 59.2693 29.7891C59.178 29.8623 59.1042 29.955 59.0533 30.0604C58.999 30.1758 58.9715 30.3021 58.973 30.4296C58.973 30.6951 59.0504 30.9026 59.2044 31.0493C59.3588 31.1956 59.5623 31.2686 59.8153 31.2686C60.0437 31.2686 60.2259 31.229 60.3645 31.1498C60.5035 31.0702 60.6146 30.9789 60.6949 30.8751V31.226H61.1514V29.5603C61.1514 29.2061 61.0744 28.9318 60.9171 28.7393C60.7627 28.5472 60.4881 28.4496 60.0994 28.4496C59.9264 28.4496 59.7628 28.4738 59.6055 28.5167ZM60.4206 30.7167C60.3095 30.7959 60.1643 30.8322 59.9854 30.8322C59.8281 30.8322 59.7045 30.7926 59.6184 30.7164C59.5318 30.6372 59.4886 30.5334 59.4886 30.4051C59.4886 30.3292 59.504 30.265 59.5381 30.2071C59.5722 30.1491 59.6184 30.1033 59.6708 30.0666C59.7281 30.0283 59.7918 30.0004 59.8589 29.9841C59.93 29.9658 60.0008 29.9566 60.0749 29.9566C60.3158 29.9566 60.5222 30.0146 60.692 30.1367V30.4813C60.612 30.571 60.5208 30.6503 60.4206 30.7167ZM65.456 27.5524C65.5547 27.5069 65.6471 27.4307 65.7336 27.3177L65.4681 26.9364C65.4003 27.0281 65.3233 27.0919 65.2368 27.1256C65.1451 27.1614 65.05 27.188 64.953 27.2048L64.8606 27.2213C64.7803 27.2352 64.6941 27.2506 64.6013 27.266C64.4526 27.2936 64.3076 27.3386 64.1694 27.4002C63.9501 27.4948 63.7745 27.6228 63.6418 27.7845C63.509 27.9462 63.4042 28.1292 63.3331 28.3308C63.261 28.5351 63.2124 28.747 63.1882 28.9622C63.1633 29.1822 63.1512 29.3923 63.1512 29.5936C63.1512 29.8532 63.1849 30.0879 63.2527 30.2984C63.3209 30.5092 63.4163 30.6859 63.5428 30.8293C63.6693 30.976 63.8207 31.086 63.9996 31.1652C64.1786 31.2444 64.3791 31.284 64.6043 31.284C64.8111 31.284 65.0025 31.2444 65.1752 31.171C65.3417 31.1006 65.4927 30.998 65.6196 30.8693C65.7428 30.7439 65.8418 30.5943 65.9096 30.4267C65.9804 30.2588 66.0145 30.0787 66.0145 29.8895C66.0145 29.6853 65.9837 29.4994 65.925 29.3344C65.871 29.1771 65.7848 29.0328 65.672 28.9105C65.559 28.7904 65.4209 28.6965 65.2676 28.6355C65.0987 28.569 64.9185 28.5359 64.737 28.538C64.6197 28.538 64.5056 28.5534 64.3945 28.5838C64.2865 28.6143 64.1827 28.6584 64.0858 28.7151C63.9918 28.769 63.9056 28.8356 63.8299 28.9131C63.7558 28.9897 63.6942 29.0752 63.6509 29.1727H63.6385C63.648 29.0477 63.6634 28.9197 63.6909 28.7884C63.7188 28.6572 63.7587 28.5318 63.8115 28.413C63.864 28.2942 63.9318 28.1871 64.0151 28.0896C64.1043 27.9911 64.2137 27.9131 64.3359 27.8608C64.4702 27.7968 64.6123 27.7507 64.7587 27.7236L64.8554 27.706C64.9519 27.6884 65.0439 27.6716 65.1319 27.6532C65.2492 27.629 65.357 27.5979 65.456 27.5524ZM63.7404 30.1612C63.6927 30.0072 63.6698 29.8465 63.6726 29.6853C63.6933 29.5928 63.7309 29.5049 63.7837 29.4261C63.8361 29.3436 63.904 29.2706 63.9843 29.2061C64.1655 29.0641 64.3895 28.9878 64.6197 28.9897C64.9068 28.9897 65.1227 29.0781 65.2738 29.2523C65.4252 29.429 65.4993 29.6486 65.4993 29.9141C65.4993 30.0454 65.4744 30.1645 65.4315 30.2742C65.3898 30.3823 65.3268 30.481 65.2462 30.5643C65.1657 30.6476 65.0692 30.7139 64.9625 30.7593C64.8514 30.808 64.7308 30.8326 64.5951 30.8326C64.4594 30.8326 64.3359 30.8051 64.2218 30.7501C64.1085 30.6962 64.0084 30.6181 63.9285 30.5213C63.8449 30.4134 63.7812 30.2915 63.7404 30.1612ZM69.7541 28.5076H69.2664V31.2231H69.7541V28.5076ZM66.7177 28.5076H67.2054V29.3223H67.656C67.8687 29.3223 68.0414 29.3498 68.1804 29.4015C68.3193 29.4536 68.4304 29.5236 68.5137 29.609C68.5969 29.6945 68.6556 29.7953 68.6897 29.9079C68.7234 30.0208 68.7421 30.1367 68.7421 30.2588C68.7421 30.3809 68.7234 30.4971 68.6834 30.613C68.6464 30.7288 68.5815 30.8293 68.495 30.921C68.4088 31.0126 68.2915 31.086 68.1433 31.141C67.9952 31.1956 67.8163 31.226 67.6003 31.226H66.7148V28.5076H66.7177ZM67.2054 29.7766V30.7714H67.5603C67.8042 30.7714 67.9769 30.7288 68.0755 30.643C68.1745 30.5576 68.2236 30.4359 68.2236 30.2742C68.2236 30.1092 68.1712 29.9845 68.0726 29.8987C67.9706 29.8133 67.8009 29.7704 67.5666 29.7704H67.2054V29.7766Z" fill="#8300FF"/>
<path id="path90" d="M72.9786 30.8322C72.8613 30.9818 72.7069 31.0948 72.5218 31.171C72.3318 31.2483 72.1285 31.2877 71.9234 31.2869C71.7194 31.2897 71.5165 31.2556 71.3246 31.1864C71.1522 31.1239 70.9946 31.0263 70.8619 30.8997C70.7307 30.7729 70.6277 30.62 70.5594 30.4509C70.486 30.2655 70.4494 30.0676 70.4516 29.8683C70.4516 29.6703 70.4853 29.4869 70.5564 29.3131C70.6243 29.139 70.7229 28.9897 70.8465 28.8643C70.97 28.7364 71.1178 28.6388 71.2846 28.5626C71.4605 28.4851 71.651 28.4466 71.8431 28.4496C72.062 28.4496 72.2658 28.4771 72.451 28.5318C72.6362 28.5868 72.7935 28.6784 72.9229 28.8068L72.6978 29.1881C72.5889 29.0894 72.4606 29.0145 72.3212 28.9681C72.1886 28.9254 72.0502 28.9039 71.9109 28.9043C71.7877 28.9043 71.6704 28.9285 71.556 28.9743C71.4437 29.0196 71.3412 29.0859 71.2538 29.1698C71.1651 29.2565 71.0948 29.3603 71.047 29.4748C70.9946 29.5936 70.97 29.7249 70.97 29.8712C70.97 30.0208 70.9975 30.155 71.05 30.2709C71.1024 30.39 71.1735 30.4909 71.263 30.5759C71.3525 30.6617 71.4573 30.7255 71.5776 30.7684C71.6982 30.811 71.8247 30.8355 71.9604 30.8355C72.1269 30.8355 72.275 30.8018 72.4077 30.7376C72.536 30.6757 72.6512 30.5898 72.7473 30.4846L72.9786 30.8322ZM73.2283 28.5076H75.7308V28.9897H74.7247V31.2227H74.2374V28.9897H73.2316V28.5076H73.2283Z" fill="#8300FF"/>
<path id="path92" fill-rule="evenodd" clip-rule="evenodd" d="M76.7491 28.508H76.2614V32.4313H76.7491V31.0981C76.8477 31.1623 76.965 31.2081 77.1007 31.2385C77.2364 31.269 77.3783 31.284 77.5235 31.284C77.7394 31.284 77.9338 31.2444 78.1098 31.1714C78.2786 31.0992 78.4316 30.9946 78.56 30.8634C78.6865 30.7318 78.7822 30.5793 78.8501 30.3992C78.9179 30.2196 78.952 30.0271 78.952 29.8228C78.952 29.6212 78.9212 29.4353 78.8625 29.2673C78.8073 29.1078 78.7214 28.9607 78.6095 28.8343C78.4998 28.711 78.3637 28.614 78.2113 28.5505C78.0448 28.4789 77.865 28.4436 77.6837 28.4467C77.4927 28.4467 77.3138 28.4834 77.144 28.5567C76.9742 28.6301 76.8415 28.7181 76.7491 28.8281V28.508ZM77.0886 29.0114C77.2276 28.9381 77.3786 28.9014 77.5422 28.9014C77.6841 28.9014 77.8106 28.9227 77.925 28.9685C78.0361 29.0143 78.1285 29.0785 78.2058 29.1639C78.2828 29.2494 78.3415 29.3473 78.3785 29.4628C78.4185 29.5786 78.4372 29.704 78.4372 29.8412C78.4372 29.9878 78.4123 30.1187 78.3694 30.2408C78.3289 30.3566 78.2647 30.4626 78.1809 30.5521C78.0967 30.6406 77.9947 30.7102 77.8817 30.7564C77.7557 30.8091 77.6201 30.8351 77.4835 30.8326C77.3511 30.8326 77.2276 30.8176 77.1102 30.7872C76.9818 30.7522 76.8599 30.6965 76.7494 30.6222V29.2765C76.8356 29.1731 76.95 29.0847 77.0886 29.0114ZM82.6916 28.5076H82.204V31.2231H82.6916V28.5076ZM79.6523 28.5076H80.14V29.3223H80.5903C80.8033 29.3223 80.976 29.3498 81.115 29.4015C81.2539 29.4536 81.365 29.5236 81.4483 29.6091C81.5315 29.6945 81.5902 29.7953 81.6239 29.9079C81.658 30.0208 81.6763 30.1367 81.6763 30.2588C81.6763 30.3809 81.658 30.4971 81.618 30.613C81.581 30.7289 81.5161 30.8293 81.4296 30.921C81.3434 31.0127 81.2261 31.086 81.0779 31.141C80.9298 31.1956 80.7509 31.2261 80.5349 31.2261H79.6494V28.5076H79.6523ZM80.1433 29.7766V30.7714H80.4982C80.7417 30.7714 80.9148 30.7289 81.0134 30.6431C81.112 30.5576 81.1615 30.4359 81.1615 30.2742C81.1615 30.1092 81.1091 29.9845 81.0105 29.8987C80.9085 29.8133 80.7388 29.7704 80.5045 29.7704H80.1433V29.7766Z" fill="#8300FF"/>
<path id="path94" d="M85.0306 29.8166L86.0734 31.2231H85.475L84.6694 30.1246L83.8517 31.2231H83.2841L84.3207 29.8408L83.3457 28.5076H83.9445L84.6881 29.5328L85.4438 28.5076H86.0118L85.0306 29.8166ZM42.1977 34.5792H40.7014V36.843H40.2137V34.1278H42.685V36.843H42.1977V34.5792ZM45.4526 34.6096H44.4901L44.4589 35.0672C44.4252 35.4548 44.379 35.7661 44.3141 36.0037C44.2492 36.242 44.1689 36.425 44.0765 36.553C43.9841 36.6813 43.8759 36.7697 43.7524 36.8126C43.6249 36.8588 43.4901 36.8815 43.3545 36.8797L43.3175 36.4096C43.3699 36.4125 43.4315 36.4004 43.4994 36.37C43.5676 36.3396 43.6354 36.2725 43.6999 36.172C43.7648 36.0679 43.8235 35.9216 43.8759 35.7324C43.9284 35.5402 43.9625 35.2902 43.9808 34.9756L44.0303 34.1304H45.9403V36.8459H45.4526V34.6096Z" fill="#8300FF"/>
<path id="path96" fill-rule="evenodd" clip-rule="evenodd" d="M47.2549 34.1341C47.0972 34.1766 46.9553 34.2375 46.835 34.3138L46.9648 34.6984C47.0759 34.6434 47.187 34.5976 47.2978 34.558C47.4089 34.5184 47.5511 34.5 47.7205 34.5C47.8566 34.5 47.9644 34.5213 48.0476 34.5639C48.1312 34.6038 48.1928 34.6647 48.2361 34.738C48.279 34.8113 48.3068 34.903 48.3222 35.0093C48.3376 35.1164 48.3439 35.2323 48.3439 35.3573C48.2441 35.2879 48.1303 35.2411 48.0106 35.2202C47.8948 35.1971 47.777 35.1849 47.6589 35.1835C47.5141 35.1835 47.3781 35.2048 47.2486 35.2414C47.1188 35.2781 47.0077 35.3331 46.9183 35.4064C46.827 35.4797 46.7532 35.5724 46.7023 35.6778C46.6481 35.7932 46.6208 35.9195 46.6224 36.047C46.6224 36.3121 46.6994 36.52 46.8537 36.6663C47.0077 36.8126 47.2116 36.8859 47.4646 36.8859C47.693 36.8859 47.8749 36.8463 48.0139 36.7668C48.1525 36.6876 48.2636 36.5959 48.3439 36.4921V36.843H48.8007V35.1773C48.8007 34.8234 48.7234 34.5488 48.5661 34.3567C48.4117 34.1642 48.1371 34.067 47.7484 34.067C47.5817 34.0672 47.4157 34.09 47.2549 34.1341ZM48.0725 36.3334C47.9618 36.4129 47.8166 36.4496 47.6377 36.4496C47.4771 36.4496 47.3568 36.41 47.2706 36.3334C47.1841 36.2542 47.1408 36.1504 47.1408 36.0224C47.1408 35.9462 47.1562 35.882 47.1903 35.8241C47.2241 35.7661 47.2706 35.7203 47.3231 35.6836C47.3755 35.647 47.44 35.6195 47.5112 35.6011C47.5817 35.5829 47.6543 35.5738 47.7271 35.574C47.9677 35.574 48.1745 35.6319 48.3442 35.7537V36.0983C48.2641 36.188 48.1728 36.267 48.0725 36.3334Z" fill="#8300FF"/>
<path id="path98" d="M49.2785 34.1279H51.781V34.6097H50.7749V36.8431H50.2876V34.6101H49.2818V34.1279H49.2785Z" fill="#8300FF"/>
<path id="path100" fill-rule="evenodd" clip-rule="evenodd" d="M54.0583 36.8155C54.2435 36.7576 54.4008 36.6688 54.5364 36.5471L54.3883 36.1687C54.2988 36.2483 54.1786 36.3154 54.0334 36.3704C53.8885 36.4254 53.725 36.4525 53.5461 36.4525C53.2777 36.4525 53.0555 36.3825 52.8795 36.2391C52.7035 36.0957 52.6081 35.8944 52.5865 35.6378H54.697C54.7183 35.5435 54.7278 35.4365 54.7278 35.3114C54.7278 35.1255 54.6937 34.9576 54.6259 34.8051C54.5627 34.657 54.4703 34.5232 54.3542 34.4116C54.2369 34.3007 54.0985 34.2145 53.9472 34.1583C53.7888 34.0968 53.6203 34.0657 53.4504 34.0666C53.2219 34.0666 53.0214 34.1062 52.8457 34.1795C52.6796 34.2492 52.5294 34.352 52.4043 34.4817C52.2827 34.6105 52.1892 34.7632 52.1296 34.9301C52.0646 35.1079 52.0322 35.2959 52.0339 35.4852C52.0339 35.699 52.071 35.8941 52.1388 36.0682C52.207 36.242 52.3086 36.3916 52.4351 36.5167C52.5616 36.6417 52.7159 36.7363 52.8982 36.8034C53.0931 36.8727 53.2988 36.9068 53.5057 36.9042C53.688 36.9042 53.8731 36.8734 54.0583 36.8155ZM52.8212 34.7226C52.9722 34.5854 53.1728 34.5183 53.4258 34.5183C53.6667 34.5183 53.8548 34.5854 53.9938 34.7105C54.1324 34.8388 54.2064 35.0155 54.2189 35.2414H52.5528C52.5763 35.0416 52.6717 34.8572 52.8212 34.7226ZM54.9654 34.1278H55.5825L56.5234 35.4368L55.5176 36.843H54.9192L55.9741 35.4365L54.9654 34.1278ZM56.6437 34.1278H57.1313V36.843H56.6437V34.1278ZM58.8745 36.843L57.8009 35.4365L58.8037 34.1275H58.1987L57.2516 35.4365L58.2698 36.843H58.8745ZM61.1023 36.8155C61.2875 36.7576 61.4448 36.6688 61.5805 36.5471L61.4323 36.1687C61.3429 36.2483 61.2226 36.3154 61.0778 36.3704C60.9326 36.4254 60.769 36.4525 60.5901 36.4525C60.3217 36.4525 60.0995 36.3825 59.9235 36.2391C59.7479 36.0957 59.6522 35.8944 59.6305 35.6378H61.7411C61.7627 35.5435 61.7719 35.4365 61.7719 35.3114C61.7719 35.1255 61.7381 34.9576 61.6699 34.8051C61.6068 34.6571 61.5145 34.5233 61.3986 34.4116C61.2812 34.3007 61.1426 34.2145 60.9912 34.1583C60.8328 34.0968 60.6643 34.0657 60.4944 34.0666C60.2663 34.0666 60.0658 34.1062 59.8898 34.1795C59.7238 34.2493 59.5737 34.3521 59.4487 34.4817C59.3269 34.6103 59.2333 34.7631 59.174 34.9301C59.1089 35.1078 59.0764 35.2959 59.0783 35.4852C59.0783 35.699 59.1154 35.8941 59.1832 36.0682C59.251 36.242 59.353 36.3916 59.4795 36.5167C59.606 36.6417 59.76 36.7363 59.9422 36.8034C60.1373 36.8727 60.3431 36.9068 60.5501 36.9042C60.7376 36.9028 60.9238 36.8729 61.1023 36.8155ZM59.8652 34.7226C60.0166 34.5854 60.2172 34.5183 60.4702 34.5183C60.7078 34.5183 60.8988 34.5854 61.0378 34.7105C61.1768 34.8388 61.2508 35.0155 61.2629 35.2414H59.5968C59.6203 35.0416 59.7157 34.8572 59.8652 34.7226ZM63.75 33.2156C63.4629 33.2156 63.3056 33.0568 63.2811 32.7396H62.8213C62.8213 32.8614 62.8429 32.9714 62.8829 33.0751C62.9232 33.1789 62.9819 33.2673 63.0589 33.3406C63.1359 33.4139 63.2349 33.4719 63.3489 33.5173C63.4629 33.5632 63.5957 33.5844 63.7467 33.5844C63.8857 33.5844 64.0093 33.5632 64.1204 33.5173C64.2315 33.4748 64.3239 33.4139 64.4042 33.3406C64.4812 33.2673 64.5431 33.1789 64.586 33.0751C64.6293 32.9714 64.6509 32.8614 64.6509 32.7396H64.1944C64.1728 33.0568 64.0214 33.2156 63.75 33.2156ZM62.4322 34.1275V36.843H62.9199L64.5057 34.8201V36.843H64.9934V34.1275H64.5057L62.9199 36.1504V34.1275H62.4322Z" fill="#8300FF"/>
</g>
</svg>
