<svg width="141" height="44" viewBox="0 0 141 44" fill="none" xmlns="http://www.w3.org/2000/svg">
<g id="Group 1437256065">
<g id="Group 1437256060">
<path id="Vector" d="M0.20216 0.275513V17.1902C0.20216 21.004 -0.0734876 24.8262 1.55761 28.3884C4.32332 34.4288 10.5653 36.8266 15.9422 40.0288L20.0143 42.3936C20.4704 42.6573 21.197 43.2717 21.7371 43.2755C22.2015 43.2788 22.8293 42.7309 23.2249 42.506L26.9055 40.3814C31.9118 37.5235 38.0523 35.0166 41.1104 29.8762C43.4447 25.9522 43.272 21.6654 43.272 17.2685V0.275513H0.20216Z" fill="#8300FF"/>
<g id="Group 1437256058">
<path id="Vector_2" d="M53.4531 11.709V29.4068H64.1031C66.1157 29.4068 68.396 29.6034 70.2895 28.7902C73.6552 27.3445 74.5816 22.3373 71.934 19.7778C69.5746 17.4977 65.5276 18.2086 62.5369 18.2086H59.8744C59.6004 18.2086 59.118 18.2971 58.9034 18.0831C58.5322 17.712 58.7781 16.2869 58.7781 15.781H72.0123V11.709H53.4531Z" fill="#8300FF"/>
<path id="Vector_3" d="M12.0278 11.709V18.3652C12.5561 17.9945 12.9978 17.5683 13.594 17.2931C15.2043 16.55 16.8781 16.6424 18.6058 16.6424C18.6058 20.7955 19.4242 25.7193 17.1962 29.4068H26.2017C25.8402 28.5469 25.345 27.835 25.1239 26.9009C24.3544 23.6507 24.7922 19.9669 24.7922 16.6424C26.2857 16.6424 27.8278 16.5202 29.2558 17.0519C30.0909 17.3629 30.7252 17.8708 31.4484 18.3652V11.709H12.0278Z" fill="white"/>
<path id="Vector_4" d="M73.4995 29.4065H77.6498C78.1502 29.4065 78.9717 29.564 79.4337 29.3593C80.2747 28.9861 79.8793 26.9221 80.9404 26.827C82.7093 26.6682 84.5645 26.8223 86.3421 26.8223C86.9764 26.8223 88.0163 26.6222 88.6029 26.8696C89.4071 27.209 89.1808 28.8354 89.8425 29.326C90.1824 29.5783 91.0994 29.4065 91.5105 29.4065H95.8958L90.6334 16.5639L89.1831 13.04C89.0344 12.6941 88.9067 12.0053 88.5802 11.7892C88.2058 11.5415 87.3272 11.7087 86.8903 11.7087H82.505C82.0758 11.7087 81.014 11.5168 80.6898 11.8343C80.3554 12.1618 80.1886 12.9216 80.0147 13.3532L78.6052 16.7988L75.05 25.4911C74.5496 26.7318 73.7336 28.0903 73.4995 29.4065Z" fill="#8300FF"/>
<path id="Vector_5" d="M97.4622 11.7084V29.4062H102.787V22.8283H111.558V29.4062H116.883V11.7084H111.558V16.2503C111.558 16.7034 111.736 17.6399 111.477 18.0265C111.23 18.3963 110.15 18.2081 109.757 18.2081H104.745C104.331 18.2081 103.125 18.4122 102.868 18.0265C102.609 17.6399 102.787 16.7034 102.787 16.2503V11.7084H97.4622ZM120.093 11.7084V29.4062H125.497V22.6717C125.902 22.6717 126.444 22.5775 126.828 22.7189C127.585 22.998 128.247 24.0521 128.793 24.6306L131.837 27.7606C132.312 28.2476 132.749 28.9155 133.328 29.2807C133.821 29.5921 134.797 29.4062 135.364 29.4062H140.532C140.13 28.5617 139.148 27.8833 138.503 27.2167C137.04 25.7023 135.6 24.1607 134.111 22.6717L132.375 20.8965C132.207 20.7167 131.843 20.4337 131.844 20.1658C131.845 19.8943 132.216 19.6338 132.388 19.461L133.954 17.8951L138.261 13.6665C138.897 13.0351 139.693 12.43 140.219 11.7084H135.285C134.763 11.7084 133.819 11.5276 133.368 11.8196C132.853 12.1532 132.426 12.7645 131.996 13.1963L128.785 16.4856C128.254 17.0236 127.545 18.053 126.828 18.3175C126.444 18.4589 125.902 18.3647 125.497 18.3647V11.7084H120.093Z" fill="#8300FF"/>
</g>
<g id="Group 1437256059">
<path id="Vector_6" d="M84.463 15.7806C83.8984 18.2227 82.6172 20.489 81.9571 22.9067H87.4387C86.7496 21.1205 86.1427 19.3015 85.4849 17.5034C85.2821 16.9474 85.1537 15.8343 84.463 15.7806Z" fill="white"/>
<path id="Vector_7" d="M58.8558 22.1236V24.8644C61.5168 24.8644 64.2701 25.0714 66.9216 24.8571C67.8684 24.7806 68.4549 23.9965 68.209 23.0634C67.9514 22.0849 66.7055 22.1236 65.9036 22.1236H58.8558Z" fill="white"/>
</g>
</g>
</g>
</svg>
