<svg width="19" height="18" viewBox="0 0 19 18" fill="none" xmlns="http://www.w3.org/2000/svg">
<g id="mingcute:telegram-fill">
<g id="Group">
<path id="Vector" fill-rule="evenodd" clip-rule="evenodd" d="M15.6568 3.3225C15.8524 3.2445 16.0666 3.21759 16.2769 3.24459C16.4872 3.27159 16.6861 3.35151 16.8528 3.47602C17.0194 3.60053 17.1478 3.76509 17.2246 3.95257C17.3013 4.14004 17.3237 4.34358 17.2892 4.542L15.4937 14.8598C15.3195 15.855 14.1669 16.4258 13.2034 15.93C12.3975 15.5153 11.2005 14.8763 10.1238 14.2095C9.5855 13.8758 7.93646 12.807 8.13912 12.0465C8.31329 11.3963 11.0841 8.95275 12.6675 7.5C13.2889 6.92925 13.0055 6.6 12.2716 7.125C10.4492 8.4285 7.52321 10.4108 6.55579 10.9688C5.70237 11.4608 5.25746 11.5448 4.72546 11.4608C3.75487 11.3078 2.85475 11.0708 2.12008 10.782C1.12733 10.392 1.17562 9.099 2.11929 8.7225L15.6568 3.3225Z" fill="white"/>
</g>
</g>
</svg>
