<svg width="80" height="51" viewBox="0 0 80 51" fill="none" xmlns="http://www.w3.org/2000/svg">
<path d="M15.6669 0.502197H35.6345C38.4218 0.502197 40.1554 2.77409 39.5052 5.57064L30.2088 45.4836C29.5528 48.2704 26.762 50.5442 23.9728 50.5442H4.00709C1.22368 50.5442 -0.513825 48.2704 0.1364 45.4836L9.43666 5.57064C10.0869 2.77409 12.8761 0.502197 15.6669 0.502197Z" fill="#E21836"/>
<path d="M33.973 0.502197H56.9353C59.7221 0.502197 58.4655 2.77409 57.8099 5.57064L48.515 45.4836C47.8628 48.2704 48.0663 50.5442 45.2736 50.5442H22.3113C19.5187 50.5442 17.7904 48.2704 18.4465 45.4836L27.7409 5.57064C28.4009 2.77409 31.1843 0.502197 33.973 0.502197Z" fill="#00447C"/>
<path d="M56.0246 0.502197H75.9923C78.7835 0.502197 80.5171 2.77409 79.8615 5.57064L70.5666 45.4836C69.9106 48.2704 67.1179 50.5442 64.3272 50.5442H44.3688C41.5761 50.5442 39.844 48.2704 40.4981 45.4836L49.7945 5.57064C50.4447 2.77409 53.232 0.502197 56.0246 0.502197Z" fill="#007B84"/>
<path d="M20.8817 13.2934C18.8284 13.3143 18.2219 13.2934 18.0282 13.2476C17.9538 13.6015 16.5681 19.9932 16.5642 19.9986C16.2659 21.2917 16.0488 22.2135 15.3115 22.8088C14.8929 23.1548 14.4043 23.3217 13.8378 23.3217C12.9272 23.3217 12.3967 22.8696 12.3076 22.012L12.2906 21.7176C12.2906 21.7176 12.568 19.9854 12.568 19.9757C12.568 19.9757 14.0222 14.1509 14.2826 13.381C14.2962 13.3372 14.3001 13.3143 14.3035 13.2934C11.4729 13.3182 10.9711 13.2934 10.9366 13.2476C10.9176 13.3104 10.8475 13.6715 10.8475 13.6715L9.36261 20.2366L9.2351 20.7934L8.98834 22.6146C8.98834 23.1548 9.09444 23.5957 9.30567 23.9686C9.98217 25.1507 11.9119 25.3279 13.0036 25.3279C14.4101 25.3279 15.7296 25.0291 16.6212 24.4835C18.1689 23.569 18.5738 22.1395 18.9349 20.8693L19.1024 20.2176C19.1024 20.2176 20.6004 14.168 20.855 13.381C20.8647 13.3372 20.8686 13.3143 20.8817 13.2934ZM25.9787 18.1737C25.6176 18.1737 24.9576 18.2613 24.3649 18.5518C24.1497 18.6623 23.9463 18.7898 23.7317 18.9168L23.9254 18.2175L23.8193 18.0997C22.5621 18.3542 22.2808 18.3883 21.1196 18.5518L21.0222 18.6166C20.8874 19.7345 20.7677 20.575 20.2678 22.7724C20.0776 23.5823 19.88 24.4 19.6819 25.2079L19.7354 25.3106C20.9254 25.2478 21.2865 25.2478 22.3207 25.2648L22.4044 25.1738C22.5359 24.5007 22.5529 24.343 22.8439 22.9798C22.9807 22.3334 23.2659 20.9133 23.4065 20.4076C23.665 20.2879 23.92 20.1701 24.1634 20.1701C24.743 20.1701 24.6724 20.6758 24.6501 20.8773C24.6252 21.2155 24.414 22.3203 24.1974 23.2689L24.0529 23.8811C23.9521 24.3333 23.8417 24.7728 23.7409 25.221L23.7847 25.3106C24.9576 25.2478 25.3154 25.2478 26.317 25.2648L26.4348 25.1738C26.6158 24.1225 26.6689 23.8412 26.9901 22.3106L27.1517 21.6073C27.4656 20.2309 27.6233 19.533 27.3858 18.9645C27.1346 18.3275 26.5321 18.1737 25.9787 18.1737ZM31.6727 19.6147C31.0492 19.7344 30.6516 19.8143 30.2564 19.8659C29.8646 19.9286 29.4826 19.9856 28.88 20.0693L28.8323 20.1126L28.7885 20.1472C28.7257 20.5959 28.6819 20.9838 28.5987 21.4398C28.5281 21.9114 28.4196 22.4473 28.2429 23.2172C28.1062 23.8066 28.0356 24.012 27.9577 24.2193C27.8818 24.4267 27.7981 24.6282 27.6443 25.2078L27.6803 25.2614L27.7105 25.3105C28.2736 25.2837 28.642 25.2648 29.0207 25.2614C29.3988 25.2477 29.7906 25.2614 30.3971 25.2648L30.4501 25.2215L30.507 25.1738C30.5946 24.651 30.6078 24.5104 30.6613 24.2554C30.7144 23.9818 30.8059 23.6032 31.0302 22.5918C31.1363 22.1168 31.2546 21.6433 31.3646 21.1585C31.479 20.6757 31.5987 20.2002 31.7126 19.7252L31.6956 19.6678L31.6727 19.6147ZM31.686 17.6717C31.1195 17.3374 30.1251 17.4435 29.4559 17.9053C28.7887 18.358 28.7127 19.0004 29.2773 19.3392C29.8341 19.6643 30.8323 19.5674 31.4957 19.1016C32.1615 18.6393 32.2447 18.0027 31.686 17.6717ZM35.1121 25.4153C36.2582 25.4153 37.4331 25.0994 38.3174 24.1621C38.9978 23.4018 39.3098 22.2708 39.4179 21.805C39.7697 20.2612 39.4957 19.5404 39.1516 19.1014C38.6289 18.4322 37.7052 18.2176 36.7469 18.2176C36.1706 18.2176 34.7981 18.2745 33.726 19.263C32.956 19.976 32.6002 20.9435 32.3856 21.8712C32.169 22.8163 31.9198 24.5178 33.4846 25.151C33.9674 25.3584 34.6633 25.4153 35.1121 25.4153ZM35.0225 21.9418C35.2868 20.7727 35.5988 19.7915 36.395 19.7915C37.0189 19.7915 37.0642 20.5216 36.7868 21.6945C36.7371 21.9549 36.5094 22.9229 36.2013 23.3352C35.9862 23.6393 35.7316 23.8238 35.4503 23.8238C35.3666 23.8238 34.8687 23.8238 34.8609 23.0845C34.857 22.7195 34.9315 22.3467 35.0225 21.9418ZM42.283 25.265L42.3726 25.1739C42.4996 24.5008 42.5205 24.3427 42.8019 22.9799C42.9425 22.3336 43.2335 20.9134 43.3703 20.4077C43.6292 20.2875 43.8799 20.1697 44.131 20.1697C44.7068 20.1697 44.6367 20.6754 44.6138 20.8769C44.5929 21.2157 44.3817 22.32 44.1612 23.2685L44.0244 23.8808C43.9198 24.3334 43.8059 24.7724 43.7052 25.2212L43.749 25.3107C44.9258 25.2479 45.2699 25.2479 46.2773 25.265L46.399 25.1739C46.5757 24.1222 46.6234 23.8409 46.9543 22.3107L47.112 21.607C47.4274 20.2306 47.587 19.5331 47.3534 18.9647C47.095 18.3276 46.4886 18.1738 45.943 18.1738C45.5814 18.1738 44.918 18.2609 44.3286 18.552C44.1179 18.6625 43.9067 18.7895 43.6993 18.917L43.8799 18.2176L43.783 18.0993C42.5264 18.3544 42.2392 18.3884 41.0794 18.552L40.9904 18.6167C40.8497 19.7346 40.7353 20.5747 40.2355 22.7726C40.0452 23.5825 39.8476 24.4001 39.65 25.208L39.7031 25.3107C40.895 25.2479 41.2508 25.2479 42.283 25.265ZM50.9294 25.3105C51.0034 24.9493 51.4429 22.8089 51.4468 22.8089C51.4468 22.8089 51.821 21.2383 51.8439 21.1813C51.8439 21.1813 51.9617 21.0178 52.0795 20.9531H52.2527C53.8876 20.9531 55.7336 20.9531 57.1805 19.8887C58.1651 19.1586 58.8382 18.0806 59.1385 16.7704C59.2164 16.4492 59.2738 16.0671 59.2738 15.6851C59.2738 15.1833 59.1731 14.6869 58.882 14.299C58.1442 13.2667 56.6749 13.2477 54.9787 13.2399C54.9734 13.2399 54.1426 13.2477 54.1426 13.2477C51.9714 13.2745 51.1007 13.2667 50.743 13.2229C50.7128 13.3811 50.6559 13.6624 50.6559 13.6624C50.6559 13.6624 49.8782 17.2669 49.8782 17.2727C49.8782 17.2727 48.017 24.9362 47.9294 25.2973C49.8251 25.2745 50.6024 25.2745 50.9294 25.3105ZM52.3705 18.9075C52.3705 18.9075 53.1974 15.3103 53.1935 15.324L53.2203 15.1395L53.232 14.9989L53.5624 15.0329C53.5624 15.0329 55.2678 15.1794 55.3077 15.1833C55.9808 15.4437 56.2582 16.1148 56.0645 16.9909C55.8879 17.7915 55.3686 18.4646 54.7013 18.7897C54.1518 19.0652 53.4787 19.0881 52.7852 19.0881H52.3365L52.3705 18.9075ZM57.519 22.0084C57.3005 22.9399 57.0493 24.6414 58.6063 25.2478C59.1027 25.4591 59.5475 25.5218 59.9997 25.499C60.4771 25.4732 60.9195 25.2337 61.3293 24.8891C61.2923 25.0308 61.2553 25.1724 61.2184 25.3145L61.2889 25.4055C62.4088 25.3583 62.7563 25.3583 63.9696 25.3676L64.0796 25.2838C64.2568 24.2423 64.4237 23.231 64.8841 21.2384C65.1085 20.284 65.3324 19.3389 65.5626 18.3883L65.5266 18.2837C64.2738 18.5159 63.939 18.5655 62.7339 18.7363L62.6424 18.8108C62.6303 18.9076 62.6176 19.0006 62.6059 19.0936C62.4185 18.7908 62.147 18.5324 61.7279 18.3713C61.1921 18.1606 59.9335 18.4321 58.8516 19.4172C58.0913 20.1205 57.7263 21.0841 57.519 22.0084ZM60.1501 22.0653C60.4182 20.9172 60.7263 19.9458 61.5245 19.9458C62.0292 19.9458 62.2949 20.4115 62.2409 21.2058C62.1981 21.4039 62.1518 21.6127 62.0968 21.8487C62.017 22.1899 61.9304 22.5282 61.8462 22.8669C61.7605 23.0986 61.6608 23.3171 61.5513 23.4626C61.3459 23.7537 60.8572 23.9342 60.5759 23.9342C60.4961 23.9342 60.0036 23.9342 59.9865 23.2081C59.9826 22.8465 60.0571 22.4742 60.1501 22.0653ZM73.8897 18.2744L73.7929 18.1639C72.5533 18.4151 72.3289 18.455 71.19 18.6088L71.1063 18.6925C71.1024 18.7061 71.099 18.727 71.0932 18.746L71.0893 18.727C70.2414 20.6831 70.2663 20.2611 69.5761 21.801C69.5722 21.7309 69.5722 21.6871 69.5683 21.6127L69.3956 18.2744L69.287 18.1639C67.9885 18.4151 67.9579 18.455 66.7587 18.6088L66.6652 18.6925C66.6521 18.7324 66.6521 18.7762 66.6443 18.8239L66.6521 18.8409C66.802 19.607 66.766 19.4362 66.9163 20.6451C66.9864 21.2384 67.0799 21.8351 67.15 22.4211C67.2682 23.4017 67.3344 23.8845 67.479 25.3811C66.6691 26.7176 66.4773 27.2233 65.6977 28.3962L65.703 28.4079L65.154 29.2762C65.0912 29.3677 65.0343 29.4304 64.9545 29.4572C64.8669 29.5005 64.753 29.5083 64.5948 29.5083H64.2906L63.8385 31.0122L65.3896 31.039C66.3002 31.0351 66.8725 30.6092 67.1806 30.0369L68.156 28.3656H68.1404L68.2431 28.2478C68.8991 26.8354 73.8897 18.2744 73.8897 18.2744ZM57.5189 38.0257H56.8609L59.2963 29.9704H60.1043L60.3608 29.1406L60.3856 30.0634C60.3554 30.6338 60.8041 31.1395 61.9829 31.0558H63.3461L63.8153 29.5047H63.3023C63.0074 29.5047 62.8706 29.4302 62.8877 29.2706L62.8629 28.3317H60.3384V28.3366C59.5222 28.3536 57.0848 28.415 56.5913 28.5464C55.9941 28.7002 55.3648 29.1528 55.3648 29.1528L55.6121 28.322H53.2506L52.7586 29.9704L50.2905 38.1489H49.8116L49.342 39.6888H54.0454L53.8877 40.2022H56.2053L56.3591 39.6888H57.0094L57.5189 38.0257ZM55.5892 31.6072C55.211 31.7118 54.5073 32.0292 54.5073 32.0292L55.1332 29.9704H57.0094L56.5567 31.4704C56.5567 31.4704 55.9771 31.5045 55.5892 31.6072ZM55.6252 34.5483C55.6252 34.5483 55.0358 34.6223 54.6479 34.7099C54.2659 34.8257 53.5494 35.1907 53.5494 35.1907L54.1958 33.0483H56.0817L55.6252 34.5483ZM54.5739 38.0447H52.6919L53.2375 36.2366H55.1137L54.5739 38.0447ZM59.1063 33.0483H61.8192L61.4293 34.3108H58.6805L58.2678 35.691H60.673L58.8518 38.2554C58.7243 38.4438 58.6099 38.5105 58.4829 38.5635C58.3554 38.6283 58.188 38.7042 57.9942 38.7042H57.327L56.8685 40.2159H58.6138C59.521 40.2159 60.0569 39.8031 60.4525 39.2614L61.7014 37.5522L61.9696 39.2877C62.0265 39.6128 62.2601 39.8031 62.4183 39.8771C62.593 39.9647 62.7736 40.1151 63.0286 40.1375C63.3021 40.1492 63.4997 40.1584 63.6311 40.1584H64.4887L65.0036 38.4667H64.6654C64.4712 38.4667 64.1368 38.4341 64.0799 38.3732C64.0229 38.2992 64.0229 38.1854 63.9923 38.0121L63.7202 36.2726H62.6062L63.0948 35.691H65.8383L66.2603 34.3108H63.7202L64.1159 33.0483H66.6482L67.1178 31.4914H59.5682L59.1063 33.0483ZM36.1936 38.3962L36.8268 36.2898H39.4291L39.9046 34.7232H37.2999L37.6975 33.4266H40.2429L40.7145 31.9096H34.3456L33.8837 33.4266H35.3307L34.9447 34.7232H33.4939L33.013 36.3166H34.4595L33.6156 39.1034C33.5017 39.4723 33.6691 39.613 33.7752 39.7843C33.8837 39.9512 33.9937 40.0617 34.241 40.1245C34.496 40.1814 34.6707 40.2155 34.9082 40.2155H37.842L38.3647 38.48L37.0643 38.6586C36.8132 38.6586 36.1177 38.6284 36.1936 38.3962ZM36.4921 28.3125L35.8326 29.5044C35.6915 29.7648 35.5644 29.9264 35.4501 30.0008C35.3493 30.0636 35.1498 30.0899 34.8607 30.0899H34.5166L34.0567 31.6147H35.1994C35.7489 31.6147 36.1709 31.4132 36.3724 31.3125C36.5889 31.1967 36.6459 31.2628 36.8133 31.1013L37.1993 30.7669H40.7677L41.2413 29.1793H38.6292L39.0852 28.3125H36.4921ZM41.7603 38.4269C41.6994 38.3393 41.7432 38.185 41.8362 37.8638L42.8115 34.6355H46.2812C46.7869 34.6282 47.1519 34.6224 47.3894 34.6053C47.6444 34.5786 47.9218 34.4875 48.2241 34.324C48.536 34.1527 48.6957 33.9721 48.8305 33.7648C48.9809 33.558 49.2223 33.1053 49.4296 32.4074L50.6556 28.3221L47.055 28.343C47.055 28.343 45.9463 28.5065 45.4582 28.6871C44.9656 28.8886 44.2619 29.4512 44.2619 29.4512L44.587 28.3313H42.3628L39.2489 38.6585C39.1384 39.0596 39.0645 39.3506 39.0474 39.5253C39.0416 39.7137 39.2849 39.9001 39.4426 40.0407C39.629 40.1814 39.9045 40.1585 40.1688 40.1814C40.4467 40.2023 40.8419 40.2155 41.3875 40.2155H43.0967L43.6214 38.4439L42.0912 38.5884C41.9277 38.5884 41.8094 38.5008 41.7603 38.4269ZM43.4408 32.4551H47.0852L46.8535 33.1813C46.8209 33.1983 46.7431 33.1452 46.3722 33.189H43.2165L43.4408 32.4551ZM44.1709 30.0197H47.8459L47.5816 30.8943C47.5816 30.8943 45.8495 30.8772 45.5721 30.9283C44.3514 31.1396 43.6384 31.7917 43.6384 31.7917L44.1709 30.0197ZM46.9351 35.6129C46.9049 35.7215 46.8572 35.7877 46.7906 35.8373C46.7166 35.885 46.5969 35.902 46.4182 35.902H45.8989L45.9296 35.0177H43.7696L43.682 39.341C43.6786 39.653 43.7088 39.8336 43.9371 39.9781C44.1653 40.1587 44.8686 40.1815 45.8152 40.1815H47.1687L47.6574 38.5633L46.4791 38.628L46.0873 38.6509C46.0337 38.628 45.9826 38.6071 45.9257 38.5501C45.8761 38.501 45.7924 38.5312 45.806 38.2192L45.8152 37.111L47.0509 37.0599C47.7182 37.0599 48.0034 36.8428 48.2468 36.636C48.4789 36.4379 48.5548 36.2101 48.6424 35.902L48.8498 34.9208H47.1517L46.9351 35.6129Z" fill="#FEFEFE"/>
</svg>
