<svg width="104" height="44" viewBox="0 0 104 44" fill="none" xmlns="http://www.w3.org/2000/svg">
<path id="Vector" d="M18.9479 0.387729C15.6895 0.421144 14.7271 0.387729 14.4196 0.314913C14.3013 0.878491 12.1022 11.0608 12.0963 11.0693C11.6227 13.1291 11.2784 14.5979 10.1078 15.546C9.44401 16.0971 8.66842 16.3634 7.7691 16.3634C6.32423 16.3634 5.48206 15.6427 5.34095 14.2767L5.31362 13.8079C5.31362 13.8079 5.75384 11.0483 5.75384 11.0329C5.75384 11.0329 8.06175 1.75378 8.47514 0.527378C8.497 0.457554 8.50296 0.421144 8.50843 0.387729C4.01632 0.427628 3.21985 0.387729 3.1652 0.314913C3.13489 0.414661 3.02359 0.990209 3.02359 0.990209L0.66699 11.4488L0.464768 12.3356L0.0732422 15.2368C0.0732422 16.0971 0.241678 16.7998 0.576561 17.3938C1.65027 19.2771 4.71292 19.5594 6.44547 19.5594C8.67736 19.5594 10.7716 19.0831 12.1867 18.2138C14.6427 16.7574 15.2856 14.4802 15.8585 12.4563L16.1243 11.4184C16.1243 11.4184 18.5018 1.78121 18.9057 0.527378C18.9206 0.457554 18.9271 0.421144 18.9479 0.387729ZM27.0368 8.16211C26.4639 8.16211 25.4171 8.30176 24.476 8.76459C24.1347 8.94065 23.8117 9.14364 23.4709 9.34613L23.7784 8.23194L23.61 8.04441C21.6151 8.44989 21.1684 8.50425 19.3256 8.76459L19.1715 8.86783C18.9574 10.6483 18.7671 11.9875 17.9741 15.4881C17.6703 16.783 17.3602 18.0764 17.044 19.3683L17.1284 19.5314C19.0175 19.4317 19.5904 19.4317 21.232 19.4586L21.3647 19.314C21.5734 18.2417 21.6002 17.9903 22.0623 15.8183C22.2794 14.7889 22.732 12.5266 22.9551 11.7211C23.365 11.5301 23.77 11.3426 24.156 11.3426C25.0762 11.3426 24.9639 12.1481 24.9286 12.4692C24.8889 13.0079 24.554 14.7679 24.2102 16.2791L23.9806 17.2542C23.8211 17.9749 23.6458 18.6746 23.4858 19.3888L23.5553 19.5314C25.4166 19.4317 25.9845 19.4317 27.5739 19.4586L27.7607 19.314C28.0484 17.6392 28.1324 17.1908 28.6422 14.7525L28.8986 13.6323C29.3969 11.4393 29.6473 10.3276 29.2702 9.42194C28.8717 8.407 27.9148 8.16211 27.0368 8.16211ZM36.0742 10.4578C35.0845 10.6488 34.4534 10.7755 33.8264 10.8578C33.2048 10.9576 32.5982 11.0488 31.6422 11.182L31.5662 11.2508L31.4966 11.3057C31.3973 12.0209 31.3277 12.6388 31.1955 13.3655C31.0837 14.1166 30.9113 14.9704 30.6311 16.1968C30.414 17.1355 30.3022 17.4626 30.1785 17.7928C30.0577 18.1235 29.9251 18.4447 29.6811 19.3678L29.7382 19.4531L29.7859 19.5314C30.6798 19.489 31.2646 19.4586 31.8653 19.4531C32.4655 19.4317 33.0876 19.4531 34.0495 19.4581L34.134 19.3898L34.2244 19.3135C34.3635 18.4806 34.3839 18.2566 34.4688 17.8507C34.5533 17.4148 34.6984 16.8118 35.0546 15.2004C35.2231 14.4438 35.4104 13.6892 35.5853 12.9171C35.7666 12.1481 35.9564 11.391 36.1373 10.6339L36.1105 10.5426L36.0742 10.4578ZM36.0951 7.36263C35.1958 6.82997 33.6182 6.99905 32.5559 7.73469C31.4971 8.45587 31.3764 9.47929 32.2727 10.0189C33.1561 10.5366 34.7401 10.3825 35.793 9.64038C36.8498 8.90374 36.982 7.8898 36.0951 7.36263ZM41.5322 19.6985C43.3512 19.6985 45.2159 19.1948 46.6195 17.702C47.6992 16.4911 48.1946 14.6891 48.366 13.947C48.924 11.4877 48.4892 10.3396 47.9437 9.64038C47.1139 8.57407 45.6477 8.23194 44.1268 8.23194C43.2126 8.23194 41.0344 8.32271 39.3326 9.89773C38.1103 11.0334 37.5459 12.575 37.2056 14.0522C36.8617 15.5584 36.4662 18.2686 38.9495 19.2776C39.7157 19.6077 40.8202 19.6985 41.5322 19.6985ZM41.3901 14.165C41.8095 12.3027 42.3048 10.7396 43.5683 10.7396C44.5586 10.7396 44.6306 11.9027 44.1904 13.771C44.1114 14.1859 43.7502 15.728 43.2613 16.3844C42.9194 16.8691 42.516 17.1629 42.0688 17.1629C41.9362 17.1629 41.1461 17.1629 41.1337 15.9854C41.1278 15.4038 41.246 14.8098 41.3901 14.165ZM52.9128 19.4591L53.0549 19.314C53.2566 18.2417 53.2899 17.9898 53.7361 15.8188C53.9597 14.7889 54.4217 12.5271 54.6384 11.7211C55.0493 11.5296 55.4473 11.3421 55.8457 11.3421C56.7595 11.3421 56.6482 12.1476 56.6119 12.4687C56.5786 13.0084 56.2432 14.7674 55.8934 16.2786L55.6763 17.2537C55.5104 17.9749 55.3295 18.6741 55.1695 19.3893L55.2391 19.5319C57.1073 19.4322 57.6528 19.4322 59.2517 19.4591L59.445 19.314C59.7252 17.6382 59.8012 17.1903 60.3264 14.7525L60.5763 13.6318C61.0772 11.4388 61.3306 10.3281 60.9594 9.42243C60.5495 8.40749 59.5871 8.16261 58.7211 8.16261C58.1472 8.16261 57.0948 8.30126 56.1593 8.76509C55.8249 8.94065 55.4895 9.14314 55.1606 9.34662L55.4473 8.23243L55.2932 8.04391C53.2988 8.44989 52.8437 8.50425 51.0028 8.76509L50.8612 8.86783C50.6381 10.6488 50.4568 11.987 49.6638 15.4886C49.3598 16.7833 49.0499 18.0765 48.7342 19.3683L48.8187 19.5319C50.7102 19.4322 51.2746 19.4322 52.9128 19.4591ZM66.635 19.5314C66.7523 18.9559 67.4499 15.5465 67.4559 15.5465C67.4559 15.5465 68.0496 13.0443 68.0864 12.9535C68.0864 12.9535 68.2732 12.6932 68.46 12.5899H68.7348C71.3294 12.5899 74.2594 12.5899 76.5553 10.8942C78.118 9.73115 79.1862 8.01399 79.6627 5.92675C79.7864 5.41505 79.8773 4.80658 79.8773 4.19811C79.8773 3.39863 79.7179 2.60763 79.2558 1.98969C78.0847 0.345337 75.7529 0.314914 73.0609 0.302445L71.7343 0.314913C68.2886 0.357804 66.9068 0.345337 66.3389 0.275513C66.2912 0.527377 66.2008 0.975745 66.2008 0.975745C66.2008 0.975745 64.9666 6.71776 64.9666 6.72674L61.8736 19.5105C64.8821 19.4741 66.1158 19.4741 66.635 19.5314ZM68.9221 9.33116C68.9221 9.33116 70.2338 3.60062 70.2278 3.62257L70.2706 3.32831L70.2889 3.10487L70.8136 3.15874C70.8136 3.15874 73.52 3.39215 73.5831 3.39813C74.6514 3.81309 75.0916 4.88239 74.7845 6.27787C74.5038 7.55365 73.68 8.62594 72.6207 9.14364C71.7487 9.58253 70.6805 9.61894 69.5799 9.61894H68.8679L68.9221 9.33116ZM77.0924 14.2712C76.7456 15.755 76.3472 18.4656 78.818 19.4317C79.6061 19.7678 80.3121 19.8681 81.0291 19.8317C81.7873 19.7908 82.4893 19.4092 83.1397 18.8601L82.9633 19.5379L83.0756 19.6825C84.8529 19.6077 85.4044 19.6077 87.3297 19.6227L87.5046 19.489C87.7854 17.8297 88.0507 16.2188 88.7816 13.0443C89.1373 11.5241 89.4926 10.0184 89.8578 8.50425L89.8006 8.33767C87.8127 8.70724 87.2816 8.78654 85.3686 9.05835L85.2236 9.17705C85.2042 9.33166 85.1838 9.47979 85.1654 9.62791C84.8683 9.14563 84.437 8.73367 83.7722 8.47732C82.9216 8.14117 80.9242 8.57407 79.2076 10.1431C78.0007 11.2638 77.4214 12.7989 77.0924 14.2712ZM81.2681 14.362C81.6939 12.5326 82.1823 10.9855 83.4493 10.9855C84.2502 10.9855 84.672 11.7271 84.5861 12.9924C84.5127 13.3345 84.4365 13.676 84.3575 14.0168C84.2308 14.5605 84.0937 15.0991 83.9601 15.6387C83.8239 16.0078 83.6654 16.3559 83.492 16.5879C83.1661 17.0517 82.3905 17.339 81.9438 17.339C81.8171 17.339 81.0355 17.339 81.0087 16.1819C81.0022 15.6063 81.1205 15.0133 81.2681 14.362ZM103.073 8.32221L102.919 8.14615C100.952 8.54614 100.596 8.60998 98.7888 8.85487L98.6557 8.98803C98.6497 9.00997 98.6442 9.04289 98.6348 9.07331L98.6288 9.04339C97.2833 12.1595 97.3226 11.4872 96.2275 13.94C96.221 13.8283 96.221 13.759 96.2151 13.6403L95.9408 8.32221L95.7689 8.14615C93.7079 8.54614 93.6592 8.60998 91.7563 8.85487L91.6077 8.98803C91.5868 9.05187 91.5868 9.12169 91.5744 9.1975L91.5868 9.22493C91.8248 10.4449 91.7677 10.1725 92.0062 12.0987C92.1175 13.0438 92.266 13.9944 92.3768 14.928C92.5647 16.4901 92.67 17.2592 92.899 19.6436C91.6142 21.7723 91.3096 22.5782 90.0719 24.4465L90.0809 24.465L89.2094 25.8485C89.11 25.9941 89.0196 26.0939 88.8929 26.1368C88.7537 26.2056 88.5729 26.2181 88.322 26.2181H87.839L87.1216 28.614L89.5835 28.6564C91.0284 28.6504 91.9366 27.9721 92.4255 27.0604L93.9738 24.3976H93.9489L94.1119 24.2101C95.1533 21.9603 103.073 8.32221 103.073 8.32221ZM77.0924 39.7868H76.048L79.9136 26.9542H81.1955L81.6029 25.6325L81.6417 27.1023C81.594 28.011 82.306 28.8165 84.1767 28.6833H86.3405L87.0848 26.2126H86.2709C85.8029 26.2126 85.5853 26.0939 85.6126 25.8395L85.5733 24.3438H81.5672V24.3518C80.2719 24.3787 76.4033 24.4764 75.6203 24.6859C74.6727 24.9303 73.674 25.652 73.674 25.652L74.0666 24.3283H70.3188L69.5377 26.9542L65.621 39.9828H64.8608L64.1155 42.4361H71.5798L71.3299 43.2541H75.0076L75.2521 42.4361H76.2836L77.0924 39.7868ZM74.0298 29.5616C73.4296 29.7282 72.3132 30.2339 72.3132 30.2339L73.3064 26.9542H76.2836L75.5656 29.3437C75.5656 29.3437 74.6454 29.3985 74.0303 29.5616M74.0874 34.2468C74.0874 34.2468 73.1523 34.365 72.5367 34.5042C71.9306 34.6887 70.7933 35.2702 70.7933 35.2702L71.8193 31.8573H74.8119L74.0874 34.2468ZM72.419 39.8167H69.4324L70.2984 36.9365H73.2756L72.419 39.8167ZM79.612 31.8573H83.9173L83.2987 33.8688H78.9363L78.2814 36.0672H82.0988L79.2081 40.1524C79.0059 40.4526 78.8245 40.5589 78.6228 40.6432C78.4206 40.7464 78.1547 40.8676 77.8477 40.8676H76.7884L76.061 43.2755H78.8305C80.2704 43.2755 81.121 42.6182 81.7485 41.7554L83.731 39.0322L84.1563 41.7972C84.2467 42.3149 84.6174 42.6182 84.8683 42.7359C85.1455 42.8755 85.4322 43.1149 85.8372 43.1508C86.2709 43.1693 86.5845 43.1842 86.7931 43.1842H88.1545L88.9714 40.489H88.4348C88.1267 40.489 87.5956 40.4372 87.5056 40.3404C87.4147 40.2222 87.4147 40.0412 87.3665 39.7649L86.9342 36.9939H85.1664L85.942 36.0672H90.296L90.9658 33.8688H86.9347L87.5623 31.8573H91.5814L92.3267 29.3771H80.3454L79.612 31.8573ZM43.2494 40.3768L44.254 37.0213H48.3844L49.1386 34.5256H45.0048L45.6358 32.4603H49.6752L50.424 30.0434H40.3164L39.5835 32.4603H41.88L41.2674 34.5251H38.9649L38.2018 37.0637H40.4972L39.1577 41.5035C38.9774 42.091 39.2427 42.3149 39.4111 42.5882C39.5835 42.8541 39.7579 43.0301 40.1504 43.1299C40.5554 43.2207 40.8326 43.275 41.2092 43.275H45.8653L46.6951 40.51L44.6311 40.7948C44.2326 40.7948 43.1286 40.7469 43.2494 40.3768ZM43.7229 24.3134L42.6765 26.2121C42.4529 26.6265 42.2507 26.8844 42.0693 27.0026C41.9093 27.1023 41.5923 27.1447 41.1337 27.1447H40.5877L39.8578 29.5736H41.6713C42.5438 29.5736 43.2131 29.2529 43.5331 29.0923C43.8769 28.9078 43.9673 29.013 44.2326 28.7557L44.8453 28.223H50.5085L51.2602 25.6944H47.1144L47.8383 24.3129L43.7229 24.3134ZM52.0835 40.4257C51.9871 40.2861 52.0567 40.0402 52.2043 39.5285L53.752 34.3859H59.2587C60.0611 34.3745 60.6399 34.365 61.0176 34.3381C61.422 34.2952 61.8622 34.15 62.3417 33.8897C62.837 33.6169 63.0904 33.3291 63.3041 32.9989C63.5426 32.6698 63.9262 31.9481 64.2551 30.8364L66.2008 24.3283L60.4869 24.3617C60.4869 24.3617 58.727 24.6221 57.9524 24.9104C57.1709 25.231 56.0539 26.1273 56.0539 26.1273L56.5697 24.3433H53.04L48.0982 40.7948C47.9228 41.4332 47.8051 41.897 47.7782 42.1758C47.7693 42.4755 48.1553 42.7728 48.4058 42.9967C48.7014 43.2207 49.1386 43.1842 49.558 43.2206C49.9992 43.2541 50.6262 43.275 51.4923 43.275H54.2051L55.0373 40.4526L52.6092 40.6831C52.3493 40.6831 52.162 40.5434 52.0835 40.4257ZM54.7507 30.9127H60.5341L60.1664 32.0693C60.1153 32.0962 59.9915 32.0119 59.4028 32.0818H54.3944L54.7507 30.9127ZM55.9093 27.0325H61.742L61.3221 28.426C61.3221 28.426 58.5735 28.399 58.1333 28.4803C56.1955 28.817 55.0642 29.8559 55.0642 29.8559L55.9093 27.0325ZM60.2966 35.943C60.2484 36.1161 60.1724 36.2213 60.0671 36.3006C59.9493 36.3764 59.759 36.4034 59.4758 36.4034H58.652L58.7007 34.9949H55.2724L55.1332 41.882C55.1283 42.3788 55.176 42.6665 55.5382 42.897C55.9009 43.1842 57.0168 43.2212 58.5193 43.2212H60.6673L61.4424 40.6427L59.5727 40.7459L58.9506 40.7823C58.8661 40.7459 58.7847 40.7125 58.6942 40.6222C58.6157 40.5439 58.4826 40.5918 58.5044 40.095L58.5193 38.3295L60.4799 38.2482C61.5393 38.2482 61.9919 37.9021 62.3779 37.5729C62.7461 37.2572 62.8669 36.8946 63.006 36.4034L63.3349 34.8403H60.6399L60.2966 35.943Z" fill="#8300FF"/>
</svg>
