<svg width="18" height="18" viewBox="0 0 18 18" fill="none" xmlns="http://www.w3.org/2000/svg">
<g id="ic:baseline-whatsapp">
<path id="Vector" d="M14.25 3.68254C13.5623 2.98812 12.7433 2.43752 11.8406 2.06281C10.938 1.68811 9.96981 1.4968 8.9925 1.50004C4.8975 1.50004 1.56 4.83754 1.56 8.93254C1.56 10.245 1.905 11.52 2.55 12.645L1.5 16.5L5.4375 15.465C6.525 16.0575 7.7475 16.3725 8.9925 16.3725C13.0875 16.3725 16.425 13.035 16.425 8.94004C16.425 6.95254 15.6525 5.08504 14.25 3.68254ZM8.9925 15.1125C7.8825 15.1125 6.795 14.8125 5.8425 14.25L5.6175 14.115L3.2775 14.73L3.9 12.45L3.75 12.2175C3.13316 11.2328 2.80569 10.0945 2.805 8.93254C2.805 5.52754 5.58 2.75254 8.985 2.75254C10.635 2.75254 12.1875 3.39754 13.35 4.56754C13.9257 5.14044 14.3819 5.82195 14.6922 6.57254C15.0025 7.32313 15.1606 8.12785 15.1575 8.94004C15.1725 12.345 12.3975 15.1125 8.9925 15.1125ZM12.3825 10.4925C12.195 10.4025 11.28 9.95254 11.115 9.88504C10.9425 9.82504 10.8225 9.79504 10.695 9.97504C10.5675 10.1625 10.215 10.5825 10.11 10.7025C10.005 10.83 9.8925 10.845 9.705 10.7475C9.5175 10.6575 8.9175 10.455 8.2125 9.82504C7.6575 9.33004 7.29 8.72254 7.1775 8.53504C7.0725 8.34754 7.1625 8.25004 7.26 8.15254C7.3425 8.07004 7.4475 7.93504 7.5375 7.83004C7.6275 7.72504 7.665 7.64254 7.725 7.52254C7.785 7.39504 7.755 7.29004 7.71 7.20004C7.665 7.11004 7.29 6.19504 7.14 5.82004C6.99 5.46004 6.8325 5.50504 6.72 5.49754H6.36C6.2325 5.49754 6.0375 5.54254 5.865 5.73004C5.7 5.91754 5.22 6.36754 5.22 7.28254C5.22 8.19754 5.8875 9.08254 5.9775 9.20254C6.0675 9.33004 7.29 11.205 9.15 12.0075C9.5925 12.2025 9.9375 12.315 10.2075 12.3975C10.65 12.54 11.055 12.5175 11.3775 12.4725C11.7375 12.42 12.48 12.0225 12.63 11.5875C12.7875 11.1525 12.7875 10.785 12.735 10.7025C12.6825 10.62 12.57 10.5825 12.3825 10.4925Z" fill="white"/>
</g>
</svg>
