<svg width="90" height="35" viewBox="0 0 90 35" fill="none" xmlns="http://www.w3.org/2000/svg">
<g id="logos:yandex-ru" clip-path="url(#clip0_0_1237)">
<path id="Vector" d="M14.6153 0H9.89016C5.16481 0 1.09899 3.48346 1.09899 10.2325C1.09899 14.2603 3.07688 17.3083 6.48352 18.8323L0.109866 30.1535C-0.10986 30.4801 0.109866 30.8066 0.439632 30.8066H3.40664C3.62637 30.8066 3.8461 30.6978 3.95596 30.4801L9.7803 19.3766H11.868V30.4801C11.868 30.589 11.9781 30.8066 12.1978 30.8066H14.8352C15.055 30.8066 15.1648 30.6978 15.1648 30.4801V0.435323C15.055 0.108831 14.9451 0 14.6153 0ZM11.868 16.7641H10.1099C2.52756 16.7641 3.07688 2.61264 9.7803 2.61264H11.9781V16.7641H11.868Z" fill="#FF0000"/>
<path id="Vector_2" d="M30.4395 10.2326H27.8023C27.5826 10.2326 27.4726 10.3415 27.4725 10.5593V18.3968H22.6373V10.5593C22.6373 10.3416 22.5274 10.2327 22.3077 10.2326H19.7802C19.5604 10.2326 19.4506 10.3415 19.4506 10.5593V30.4802C19.4506 30.6978 19.5604 30.8067 19.7802 30.8067H22.4176C22.6373 30.8067 22.7472 30.6978 22.7473 30.4802V20.9006H27.5824V30.4802C27.5824 30.6978 27.6923 30.8067 27.9121 30.8067H30.5494C30.7692 30.8067 30.8792 30.6978 30.8792 30.4802V10.5593C30.7693 10.3416 30.6593 10.2326 30.4395 10.2326ZM89.7803 28.0854C89.7803 27.9765 89.6704 27.9765 89.5606 27.9765C88.4616 27.9765 81.7583 31.1335 81.7583 20.6831C81.7583 16.1112 83.5165 9.6886 87.6924 13.4986C87.8022 13.6074 87.9121 13.6074 88.022 13.6074C88.1318 13.6074 88.2417 13.4986 88.3517 13.2809L89.4505 11.4302C89.5604 11.3214 89.5604 11.2126 89.5604 11.1038C89.5604 10.8861 89.3407 10.7771 89.1209 10.6683C81.8682 7.07597 78.132 13.7162 78.132 21.4451C78.132 31.46 85.4946 32.8751 89.6702 29.8272C89.89 29.7184 89.89 29.5005 89.89 29.3919L89.7803 28.0854ZM71.7583 19.4856L76.8133 10.4506C76.9231 10.3416 76.8133 10.1239 76.7034 10.1239H74.1758C73.4066 10.1239 73.1869 10.3416 72.967 10.8859C72.7471 11.4302 69.011 19.1592 68.5714 19.4856V10.4504C68.5714 10.3414 68.4615 10.1238 68.3517 10.1238H65.6044C65.4945 10.1238 65.3847 10.2326 65.3847 10.4504V30.4802C65.3847 30.589 65.4945 30.8067 65.6044 30.8067H68.3517C68.5714 30.8067 68.5714 30.6978 68.5714 30.4802V20.1386C68.9012 20.3563 73.5165 29.827 73.6263 30.1535C73.8461 30.5888 74.2857 30.8067 74.8352 30.8067H77.5825C77.8022 30.8067 77.8022 30.6978 77.6923 30.4802L71.7583 19.4856ZM47.6923 28.1944H47.1428C46.4836 28.1944 46.3736 27.9767 46.3736 27.4322V10.4504C46.3736 10.2328 46.2637 10.1238 46.1538 10.1238H37.6923C37.4725 10.1238 37.3627 10.2326 37.3627 10.4504C37.3627 15.0224 37.4725 22.6424 34.3955 28.1942H33.5166C33.2967 28.1942 33.1868 28.303 33.1868 28.5207V34.5078C33.1868 34.7254 33.4065 34.8344 33.5166 34.8344H35.4945C35.9339 34.8344 36.1538 34.5078 36.1538 34.1813V30.8067H45.055V34.5078C45.055 34.6168 45.1649 34.8344 45.3846 34.8344H47.5824C47.8021 34.8344 48.1319 34.6168 48.1319 34.1813V28.5207C48.022 28.303 47.9122 28.1942 47.6925 28.1942M43.0771 28.1942H36.9229C38.6812 25.3639 40.3295 20.792 40.3295 12.7364H43.0768L43.0771 28.1942ZM56.2639 9.68843C51.7585 9.68843 49.6705 15.24 49.6705 21.3359C49.6705 31.351 56.7035 32.875 61.5386 29.9358C61.7583 29.827 61.7583 29.7182 61.7583 29.6094L61.4287 28.1942C61.4287 28.0852 61.3188 27.9765 61.0991 27.9765C59.3408 27.9765 53.187 31.0243 53.187 21.1185C55.3848 21.3361 55.3848 21.3361 61.9782 21.3361C61.8683 16.3287 61.319 9.68843 56.2639 9.68843ZM53.2969 18.8321C53.2969 10.8856 58.5716 9.36159 58.5716 18.6145C56.2639 18.6145 55.275 18.6145 53.2969 18.8321Z" fill="#F4F4F4"/>
</g>
<defs>
<clipPath id="clip0_0_1237">
<rect width="90" height="35" fill="white"/>
</clipPath>
</defs>
</svg>
